if (_typeface_js && _typeface_js.loadFace) _typeface_js.loadFace({"glyphs":{"S":{"x_min":33.90625,"x_max":1043.46875,"ha":1096,"o":"m 755 725 q 727 754 741 740 q 697 779 713 767 q 664 801 680 790 q 630 820 648 812 q 558 849 596 838 q 482 863 520 861 q 444 861 463 865 q 408 847 425 857 q 374 826 390 839 q 344 797 358 813 q 322 768 332 783 q 306 736 313 752 q 292 695 297 716 q 291 653 288 674 q 301 613 294 632 q 317 581 307 595 q 346 550 329 562 q 382 530 363 538 q 417 519 398 523 q 454 512 435 515 q 492 508 473 509 q 527 507 511 507 q 560 506 542 505 q 600 509 579 507 q 644 513 621 511 q 690 516 667 515 q 758 520 724 519 q 826 518 792 520 q 887 507 857 515 q 944 485 918 500 q 988 450 968 472 q 1022 400 1009 429 q 1035 360 1030 382 q 1043 314 1040 339 q 1041 270 1044 291 q 1032 230 1038 249 q 1011 185 1025 206 q 977 146 996 164 q 937 113 960 128 q 891 86 915 97 q 845 67 869 75 q 797 51 821 58 q 738 35 769 42 q 678 25 708 29 q 633 19 655 21 q 591 16 611 17 q 531 2 561 8 q 472 -8 501 -4 q 415 -14 443 -12 q 362 -17 387 -17 q 294 -15 326 -18 q 233 -4 261 -12 q 191 8 211 0 q 154 27 172 16 q 111 60 131 42 q 77 103 92 78 q 50 154 61 126 q 33 218 40 183 l 271 248 q 279 211 272 229 q 297 177 286 193 q 320 146 307 161 q 347 118 333 131 q 378 94 362 105 q 410 73 394 82 q 441 59 425 65 q 470 50 457 52 q 545 39 511 40 q 609 43 580 37 q 674 64 645 48 q 724 101 703 80 q 756 143 743 120 q 778 189 770 165 q 793 236 788 212 q 800 280 798 260 q 798 322 801 302 q 785 362 794 343 q 769 388 778 375 q 750 413 760 401 q 723 437 737 425 q 694 457 709 448 q 663 471 679 465 q 633 480 648 477 q 611 480 626 480 q 577 478 596 480 q 533 475 557 477 q 486 470 509 473 q 438 465 462 467 q 395 461 415 463 q 360 457 375 459 q 339 455 345 455 q 280 455 309 454 q 226 461 252 457 q 172 476 198 466 q 128 499 147 485 q 94 526 109 511 q 69 558 80 541 q 52 596 58 576 q 46 638 47 617 q 55 697 46 667 q 88 759 65 728 q 119 793 101 775 q 160 828 136 811 q 200 855 179 842 q 246 882 221 869 q 311 893 278 888 q 379 903 345 899 q 440 909 410 907 q 499 912 470 911 q 557 916 528 915 q 610 916 585 916 q 655 916 634 916 q 690 915 675 916 q 732 910 710 914 q 776 901 754 907 q 820 889 798 896 q 862 872 842 881 q 901 850 882 862 q 934 824 919 838 q 960 792 949 809 q 976 756 971 775 l 755 725 "},"a":{"x_min":42.859375,"x_max":1390.25,"ha":1289,"o":"m 69 769 q 85 791 70 779 q 123 815 100 802 q 164 833 142 824 q 212 850 187 842 q 272 868 241 859 q 333 884 303 877 q 391 894 363 889 q 444 899 420 899 q 522 896 486 901 q 585 880 557 891 q 640 853 615 869 q 684 817 664 838 q 724 777 706 798 q 759 731 741 755 q 792 683 775 708 q 824 636 808 659 q 864 579 845 609 q 903 520 884 550 q 941 460 922 491 q 980 400 961 429 q 1013 346 996 373 q 1048 294 1030 320 q 1095 227 1071 260 q 1144 164 1120 193 q 1192 120 1166 138 q 1250 93 1219 101 q 1317 84 1281 84 q 1390 96 1352 85 q 1346 61 1373 74 q 1285 40 1318 47 q 1218 27 1253 32 q 1154 16 1184 21 q 1102 10 1129 10 q 1049 17 1075 10 q 999 36 1024 23 q 954 70 975 50 q 921 107 938 88 q 889 146 904 126 q 857 187 873 166 q 824 227 840 207 q 794 208 809 218 q 763 191 778 199 q 723 169 743 180 q 684 149 703 158 q 613 118 649 132 q 539 93 577 104 q 466 71 504 84 q 389 46 428 58 q 309 22 349 33 q 230 4 269 10 q 186 0 207 0 q 146 4 165 0 q 113 13 128 6 q 86 29 99 20 q 51 74 62 48 q 43 128 40 100 q 49 158 44 143 q 61 185 54 172 q 84 221 70 203 q 112 253 97 238 q 138 277 124 265 q 165 298 151 288 q 202 325 183 313 q 240 348 221 337 q 276 370 256 359 q 318 396 297 382 q 354 418 336 406 q 390 443 373 429 q 438 478 415 459 q 484 519 462 497 q 518 556 501 537 q 550 595 535 575 q 556 607 554 600 q 556 620 557 614 q 554 633 556 626 q 547 644 552 640 q 526 677 537 661 q 505 705 515 693 q 465 751 484 733 q 428 779 446 769 q 402 792 416 788 q 375 801 389 797 q 345 807 360 805 q 311 812 329 809 q 260 811 290 816 q 198 798 230 807 q 164 790 181 794 q 131 782 147 786 q 99 775 115 778 q 69 769 84 771 m 649 496 q 600 464 625 480 q 549 434 575 448 q 507 409 528 421 q 463 385 485 397 q 413 351 438 368 q 364 316 387 335 q 330 284 347 301 q 299 250 314 268 q 275 211 283 230 q 265 176 267 192 q 269 136 263 154 q 290 105 276 118 q 318 86 302 93 q 354 77 335 78 q 393 77 373 74 q 432 88 413 80 q 478 109 455 99 q 524 132 501 120 q 568 158 546 145 q 611 185 591 170 q 659 221 636 202 q 705 264 683 241 q 734 296 720 279 q 762 332 748 313 l 705 415 l 649 496 "},"T":{"x_min":-126.140625,"x_max":1323.78125,"ha":1389,"o":"m 1307 995 q 1315 984 1311 990 q 1323 972 1319 979 q 1249 938 1288 954 q 1167 908 1209 922 q 1081 880 1125 893 q 992 857 1037 868 q 924 842 958 849 q 855 830 889 835 q 736 815 796 820 q 676 810 706 812 q 614 808 645 808 q 571 791 595 804 q 523 759 547 778 q 484 726 504 744 q 448 687 465 708 q 415 644 431 667 q 386 599 400 622 q 362 537 371 568 q 355 477 354 507 q 366 398 356 436 q 393 325 377 360 q 438 250 412 286 q 495 185 465 215 q 548 143 520 162 q 604 109 576 124 q 678 84 641 92 q 750 78 716 75 q 804 82 779 80 q 851 87 828 84 q 894 96 873 90 q 937 109 915 101 q 1000 141 967 122 q 1079 192 1034 161 q 1129 229 1102 208 q 1186 272 1155 249 q 1201 264 1193 268 q 1216 256 1208 260 q 1180 219 1200 238 q 1133 180 1159 199 q 1085 147 1110 164 q 1032 116 1060 131 q 972 89 1003 103 q 907 63 941 75 q 830 41 870 51 q 750 25 790 31 q 691 13 716 20 q 642 0 665 6 q 596 -10 619 -5 q 542 -16 572 -16 q 472 -10 507 -16 q 402 5 436 -5 q 337 34 368 16 q 276 77 305 52 q 232 122 253 97 q 193 176 211 146 q 168 224 180 199 q 146 278 155 249 q 132 331 138 303 q 122 389 126 359 q 122 451 118 419 q 141 516 127 484 q 172 579 153 547 q 215 638 192 610 q 268 694 240 668 q 328 741 297 720 q 389 780 358 763 q 453 808 421 797 q 362 818 409 815 q 264 823 314 821 q 166 823 215 823 q 69 827 116 824 q 21 823 43 826 q -23 815 -1 820 q -65 802 -44 809 q -107 785 -85 794 q -116 793 -111 789 q -126 801 -122 797 q -92 817 -109 809 q -56 832 -74 824 q -13 853 -35 843 q 29 873 8 863 q 76 893 52 885 q 124 907 100 901 q 186 918 155 915 q 246 923 217 922 q 358 924 302 926 q 470 923 413 922 q 545 920 507 922 q 621 915 583 918 q 697 910 659 912 q 771 907 735 907 q 847 907 809 906 q 922 910 884 908 q 996 912 958 911 q 1071 912 1033 914 q 1137 928 1106 918 q 1196 949 1167 938 q 1251 973 1223 961 q 1307 995 1279 986 "},"N":{"x_min":-88.15625,"x_max":1225.078125,"ha":1287,"o":"m -88 887 l -81 907 q -35 910 -59 908 q 14 913 -10 911 q 67 917 40 915 q 122 922 94 919 q 198 927 161 925 q 264 931 234 930 q 315 931 294 931 q 344 927 336 931 q 344 895 345 911 q 341 865 343 880 q 342 832 340 849 q 352 794 344 815 q 396 813 375 804 q 435 830 416 823 q 471 844 454 838 q 504 854 488 850 q 549 867 527 861 q 595 877 572 873 q 631 884 613 881 q 670 889 649 887 q 752 910 713 903 q 826 920 790 918 q 892 921 861 923 q 952 914 923 919 q 1010 895 983 907 q 1060 869 1037 884 q 1103 834 1083 853 q 1137 794 1123 815 q 1177 726 1161 762 q 1204 651 1193 690 q 1221 563 1216 607 q 1224 477 1226 519 q 1220 406 1224 442 q 1207 335 1215 370 q 1180 255 1196 294 q 1142 180 1163 217 q 1099 117 1123 147 q 1048 58 1075 86 q 1009 21 1030 39 q 965 -13 988 2 q 918 -45 942 -29 q 866 -75 893 -61 q 824 -96 846 -86 q 781 -116 802 -107 q 720 -139 751 -128 q 656 -157 689 -149 q 695 -135 676 -147 q 732 -109 714 -123 q 767 -80 750 -96 q 800 -47 783 -65 q 823 -20 812 -35 q 846 8 835 -5 q 867 38 857 23 q 887 70 877 54 q 910 117 899 93 q 930 165 922 141 q 948 215 939 189 q 961 267 956 241 q 973 349 969 307 q 975 432 976 390 q 968 506 973 467 q 953 583 963 545 q 935 640 946 611 q 911 694 925 668 q 871 751 893 724 q 820 797 849 778 q 745 838 783 823 q 668 851 706 853 q 590 832 629 851 q 512 771 552 813 q 466 716 489 748 q 420 642 443 683 q 389 581 405 614 q 358 511 374 549 q 356 501 358 509 q 354 480 355 493 q 354 451 354 467 q 352 416 354 435 q 352 349 352 385 q 352 273 352 313 q 352 208 352 241 q 352 143 352 174 q 352 82 352 111 q 352 27 352 52 l 112 -36 q 111 4 112 -16 q 111 46 111 24 q 110 88 111 67 q 109 131 109 109 q 107 179 108 154 q 107 226 107 203 q 105 274 107 250 q 104 322 104 298 q 102 361 103 341 q 100 401 101 381 q 97 451 99 425 q 94 501 96 477 q 91 547 93 524 q 86 591 89 569 q 82 636 85 614 q 78 680 80 657 q 69 713 75 694 q 51 751 62 732 q 36 776 44 763 q 18 800 28 789 q -1 826 9 813 q -27 849 -12 838 q -55 869 -40 859 q -88 887 -70 878 "},"K":{"x_min":-92.234375,"x_max":1585.5625,"ha":1289,"o":"m -92 1337 l -92 1368 l 359 1368 l 359 495 q 409 490 382 489 q 465 497 436 491 q 523 514 493 503 q 581 541 553 526 q 630 571 606 554 q 676 604 655 587 q 718 641 698 622 q 752 680 737 660 q 768 706 762 691 q 777 737 774 721 q 779 771 781 754 q 774 804 778 788 q 748 854 766 830 q 703 896 731 878 q 817 902 760 899 q 931 910 874 906 q 973 894 956 903 q 1002 873 990 885 q 1021 847 1014 861 q 1029 817 1028 832 q 1029 785 1032 801 q 1021 752 1026 769 q 1006 718 1015 735 q 986 684 996 701 q 941 635 967 659 q 888 591 916 611 q 845 563 866 576 q 800 539 823 550 q 756 520 778 528 q 713 504 733 511 q 770 478 743 495 q 821 440 797 462 q 883 377 854 412 q 939 303 912 341 q 983 242 961 273 q 1026 181 1005 211 q 1072 124 1048 151 q 1120 73 1095 96 q 1156 42 1137 55 q 1194 18 1174 28 q 1236 4 1215 8 q 1281 1 1257 0 q 1329 10 1307 2 q 1372 29 1352 18 q 1410 54 1392 40 q 1444 82 1428 67 q 1491 122 1467 101 q 1540 158 1515 142 q 1563 147 1551 153 q 1585 135 1574 141 q 1565 102 1578 119 q 1535 69 1553 85 q 1496 40 1517 54 q 1451 12 1475 25 q 1369 -18 1413 -5 q 1281 -37 1326 -32 q 1201 -47 1242 -43 q 1118 -51 1159 -51 q 1031 -46 1074 -51 q 949 -24 988 -40 q 899 2 923 -13 q 851 40 874 18 q 808 86 828 61 q 769 136 788 111 q 734 189 751 162 q 701 241 717 215 q 662 302 680 273 q 627 351 644 330 q 580 397 606 378 q 527 428 554 416 q 472 447 500 440 q 417 455 443 454 q 399 452 408 455 q 382 443 390 448 q 368 430 374 438 q 363 415 363 423 l 363 217 l 363 27 q 297 14 332 21 q 226 2 261 8 q 156 -11 191 -4 q 90 -24 122 -18 l 90 1125 q 82 1167 88 1146 q 66 1208 75 1188 q 52 1234 61 1222 q 36 1257 44 1246 q 5 1291 23 1274 q -33 1318 -12 1307 q -61 1329 -47 1325 q -92 1337 -75 1334 "},"d":{"x_min":43.203125,"x_max":1206.53125,"ha":1267,"o":"m 550 1293 q 535 1264 538 1280 q 539 1223 533 1247 q 546 1208 541 1216 q 559 1192 552 1200 q 576 1175 566 1184 q 596 1158 585 1166 q 616 1143 606 1150 q 636 1129 626 1136 q 653 1117 645 1123 q 667 1109 661 1112 q 722 1074 694 1093 q 779 1037 751 1056 q 825 1007 802 1022 q 869 975 847 991 q 926 933 897 954 q 981 889 954 911 q 1032 845 1007 868 q 1079 800 1057 821 q 1123 748 1104 777 q 1158 687 1143 718 q 1185 619 1174 655 q 1201 547 1196 584 q 1206 476 1207 512 q 1199 405 1205 440 q 1184 354 1193 379 q 1159 306 1174 328 q 1136 271 1148 288 q 1109 238 1124 253 q 1081 205 1095 221 q 1049 176 1066 189 q 1015 151 1033 162 q 979 130 998 139 q 943 113 961 120 q 906 97 925 105 q 840 69 873 85 q 771 43 807 54 q 693 21 735 31 q 600 1 651 12 q 526 -10 562 -5 q 453 -14 489 -16 q 424 -13 438 -14 q 395 -9 410 -12 q 362 -3 379 -6 q 325 5 345 0 q 295 18 311 9 q 261 37 278 27 q 230 59 245 48 q 206 78 215 70 q 198 86 203 81 q 186 99 192 92 q 173 113 180 105 q 160 128 166 120 q 148 145 154 136 q 136 160 142 153 q 127 172 131 166 q 120 183 123 179 q 96 229 108 202 q 73 286 84 256 q 54 344 62 314 q 44 398 47 374 q 44 467 42 432 q 51 535 46 501 q 68 604 58 571 q 93 668 78 637 q 145 755 115 714 q 212 827 174 796 q 296 878 250 858 q 394 901 341 897 q 438 906 410 903 q 496 914 465 910 q 522 915 505 915 q 558 916 539 915 q 592 917 576 916 q 618 920 609 918 q 619 922 619 920 q 617 925 618 923 q 613 927 615 926 q 611 931 611 929 q 592 947 604 939 q 564 962 579 954 q 533 977 549 969 q 504 995 518 986 q 477 1013 491 1003 q 451 1031 463 1022 q 428 1049 439 1040 q 409 1067 417 1059 q 384 1089 400 1076 q 351 1116 368 1102 q 318 1141 335 1129 q 291 1159 302 1152 q 279 1169 284 1163 q 269 1183 273 1175 q 259 1198 264 1190 q 250 1209 254 1205 q 236 1227 245 1215 q 217 1253 226 1239 q 199 1279 207 1266 q 187 1293 191 1291 q 179 1308 179 1302 q 183 1318 179 1314 q 198 1324 188 1322 q 215 1326 207 1326 q 238 1327 227 1327 q 257 1327 249 1326 q 296 1331 275 1330 q 339 1334 317 1333 q 383 1336 362 1336 q 421 1336 404 1336 q 445 1338 431 1336 q 477 1341 459 1340 q 513 1344 495 1342 q 546 1345 531 1345 q 571 1344 562 1345 q 581 1339 580 1344 q 575 1324 583 1334 q 550 1293 568 1314 m 971 478 q 958 541 965 512 q 941 594 950 569 q 923 636 933 617 q 904 670 914 655 q 885 698 895 686 q 864 720 874 710 q 845 739 854 731 q 827 754 835 747 q 770 806 797 779 q 716 851 743 832 q 656 881 687 870 q 587 889 625 892 q 533 877 560 887 q 481 854 505 868 q 419 811 448 836 q 366 755 390 785 q 326 698 344 728 q 297 637 309 668 q 278 575 284 606 q 271 514 271 543 q 280 434 271 477 q 303 348 288 390 q 330 281 314 314 q 366 219 347 248 q 417 155 389 185 q 476 104 444 126 q 543 71 507 84 q 617 59 579 59 q 685 67 652 59 q 748 88 718 74 q 822 133 788 105 q 885 193 857 161 q 923 250 906 221 q 952 311 941 279 q 972 394 967 351 q 971 478 977 436 "},"Y":{"x_min":-2.71875,"x_max":1294.484375,"ha":1359,"o":"m 482 918 l 477 891 q 444 849 461 870 q 413 807 428 827 q 374 750 393 778 q 340 694 355 722 q 307 629 321 661 q 287 562 294 596 q 280 509 282 535 q 283 455 279 482 q 294 391 287 424 q 310 325 301 358 q 333 261 320 292 q 364 202 347 229 q 414 140 386 168 q 478 93 442 112 q 533 71 504 80 q 596 61 562 63 q 661 65 629 59 q 722 81 693 70 q 783 110 754 93 q 840 147 812 127 q 891 189 866 166 q 939 234 916 211 q 984 282 963 257 q 1026 329 1006 306 q 1032 345 1030 333 q 1033 376 1033 358 q 1032 418 1033 394 q 1026 469 1030 442 q 1013 537 1021 501 q 994 609 1006 573 q 963 691 981 651 q 923 766 945 732 q 872 824 900 800 q 812 859 845 849 l 812 907 l 1230 907 l 1243 729 l 1261 492 q 1268 422 1265 459 q 1276 344 1272 385 q 1283 252 1280 299 q 1289 157 1287 204 q 1292 80 1291 118 q 1293 4 1293 42 q 1293 -99 1295 -47 q 1287 -198 1291 -151 q 1270 -307 1281 -257 q 1241 -390 1258 -358 q 1203 -442 1226 -417 q 1152 -492 1181 -467 q 1097 -533 1127 -512 q 1034 -571 1067 -553 q 941 -617 990 -595 q 842 -655 892 -638 q 765 -677 804 -667 q 691 -694 727 -687 q 668 -703 680 -697 q 643 -714 656 -709 q 617 -724 630 -720 q 592 -731 604 -729 q 493 -736 542 -740 q 394 -720 443 -732 q 312 -691 352 -709 q 237 -652 272 -674 q 167 -602 199 -629 q 112 -546 135 -575 q 67 -473 82 -509 q 58 -405 52 -436 l 278 -347 q 313 -404 298 -379 q 343 -448 329 -429 q 366 -482 355 -467 q 391 -509 378 -496 q 418 -533 404 -522 q 450 -557 432 -545 q 513 -593 481 -579 q 576 -614 545 -607 q 676 -621 626 -625 q 775 -602 727 -617 q 859 -567 819 -588 q 938 -522 900 -546 q 959 -500 949 -514 q 978 -467 969 -486 q 995 -423 987 -447 q 1010 -370 1003 -398 q 1027 -286 1019 -330 q 1038 -193 1034 -242 q 1046 -88 1044 -142 q 1047 16 1048 -35 q 1041 105 1045 62 q 1032 187 1037 149 q 984 160 1007 173 q 935 132 960 146 q 873 98 904 115 q 809 66 842 81 q 743 38 777 51 q 675 16 710 25 q 605 2 641 6 q 531 -2 569 -2 q 503 -4 518 -2 q 475 -9 489 -6 q 446 -14 461 -12 q 419 -16 432 -16 q 337 -11 375 -18 q 263 9 298 -4 q 206 44 233 24 q 157 88 180 63 q 127 125 141 105 q 101 166 113 145 q 84 202 92 184 q 70 238 75 219 q 52 298 59 267 q 43 360 46 329 q 40 410 40 385 q 40 461 39 435 q 48 521 43 491 q 62 580 54 552 q 82 638 70 610 q 111 691 94 665 q 129 727 122 710 q 139 758 136 744 q 134 796 142 779 q 107 827 126 813 q 86 838 97 832 q 61 851 74 845 q 31 863 47 857 q -2 874 14 869 l -2 901 q 77 912 40 908 q 147 919 115 916 q 208 922 180 922 q 260 922 236 923 q 314 920 288 922 q 367 918 340 919 q 422 917 394 918 q 482 918 450 916 "},"E":{"x_min":43.40625,"x_max":1112.203125,"ha":1168,"o":"m 1079 760 l 971 732 l 862 703 q 826 748 846 728 q 782 786 805 769 q 720 823 752 808 q 655 847 689 839 q 604 857 630 854 q 554 859 579 861 q 497 848 524 857 q 447 821 469 839 q 419 801 434 811 q 389 782 404 792 q 362 761 375 773 q 337 736 349 750 q 309 692 322 718 q 287 629 297 665 q 278 578 282 606 q 271 516 273 550 q 276 507 271 509 q 290 505 282 505 q 305 506 297 505 q 317 507 313 507 q 398 508 358 507 q 480 511 439 509 q 572 513 526 512 q 664 515 618 514 q 769 518 716 516 q 874 519 821 519 q 942 519 908 519 q 1010 519 976 519 q 1025 512 1017 519 q 1038 497 1033 505 q 1045 479 1044 489 q 1041 465 1047 469 q 997 431 1022 446 q 945 406 972 417 q 888 389 918 396 q 831 379 858 382 q 820 379 826 379 q 809 381 815 379 q 798 384 804 382 q 789 389 793 386 q 783 394 785 391 q 783 401 782 397 q 788 410 783 405 q 802 420 793 415 q 809 423 805 421 q 815 429 812 425 q 820 436 817 432 q 824 443 823 439 q 826 450 826 447 q 822 457 826 454 q 813 461 819 459 q 798 465 808 463 q 742 467 770 466 q 686 470 714 469 q 615 469 651 470 q 543 469 579 469 q 481 466 512 467 q 419 463 450 465 q 356 462 387 463 q 292 461 325 461 q 282 457 287 459 q 276 451 278 455 q 273 441 273 447 q 275 425 273 435 q 286 365 279 396 q 306 306 294 335 q 334 249 318 276 q 368 198 349 222 q 409 152 387 173 q 455 115 431 131 q 506 88 480 99 q 560 73 533 77 q 629 63 595 67 q 697 58 663 58 q 765 67 731 58 q 835 99 800 75 q 868 118 851 108 q 903 141 885 128 q 937 166 920 153 q 969 192 954 179 q 998 219 984 206 q 1024 246 1011 233 q 1051 273 1037 260 q 1083 298 1066 286 l 1112 298 q 1097 263 1106 280 q 1075 227 1089 245 q 1053 200 1066 214 q 1028 174 1041 187 q 996 146 1013 160 q 961 120 979 132 q 925 98 944 108 q 889 80 907 88 q 821 52 857 65 q 751 27 786 39 q 677 8 714 16 q 603 -5 640 0 q 558 -11 581 -9 q 514 -14 535 -13 q 470 -14 492 -14 q 428 -10 448 -13 q 382 -3 405 -8 q 339 9 359 1 q 300 26 320 17 q 263 43 280 35 q 235 59 249 51 q 208 75 221 67 q 174 103 191 88 q 143 135 158 118 q 122 164 132 147 q 101 199 111 180 q 84 238 92 217 q 69 283 75 259 q 59 322 63 302 q 51 364 55 343 q 46 401 48 382 q 43 439 44 420 q 43 476 43 458 q 46 514 43 495 q 52 551 48 533 q 61 588 55 569 q 77 631 67 610 q 99 672 86 652 q 120 708 108 690 q 147 740 132 725 q 189 781 166 762 q 238 817 211 801 q 294 849 264 835 q 356 872 324 862 q 419 885 386 880 q 486 891 451 891 q 542 896 514 892 q 599 906 571 900 q 653 915 626 911 q 703 919 680 919 q 756 918 729 919 q 808 914 782 918 q 859 906 834 911 q 910 892 885 900 q 963 868 937 882 q 1013 835 990 854 q 1049 801 1032 820 q 1079 760 1066 782 "},"j":{"x_min":-271.265625,"x_max":764.96875,"ha":803,"o":"m 302 903 l 705 903 q 699 752 702 827 q 697 604 697 678 q 697 438 697 520 q 698 272 698 355 q 701 136 699 204 q 703 0 702 67 q 702 -59 703 -28 q 699 -119 701 -89 q 697 -179 698 -149 q 695 -240 695 -210 q 684 -345 695 -295 q 646 -434 674 -394 q 583 -505 619 -474 q 504 -556 546 -537 q 447 -579 476 -569 q 391 -598 419 -590 q 320 -615 356 -607 q 249 -626 284 -622 q 185 -632 217 -629 q 122 -636 153 -634 q 57 -638 89 -637 q -5 -640 25 -640 q -53 -636 -29 -641 q -99 -620 -77 -630 q -140 -595 -120 -610 q -176 -562 -160 -580 q -208 -524 -193 -545 q -234 -481 -223 -503 q -256 -435 -246 -458 q -271 -389 -265 -412 l -147 -378 l -25 -368 q -2 -416 -12 -391 q 17 -465 6 -440 q 43 -510 28 -488 q 81 -552 58 -533 q 119 -576 101 -566 q 153 -590 136 -585 q 185 -595 170 -595 q 214 -592 200 -595 q 242 -585 229 -590 q 267 -573 254 -580 q 290 -558 279 -565 q 311 -542 302 -550 q 366 -489 343 -519 q 405 -425 389 -459 q 430 -354 420 -391 q 444 -279 440 -317 q 455 -161 451 -221 q 461 -40 459 -101 q 461 77 462 17 q 459 196 461 136 q 455 308 458 252 q 450 421 453 364 q 446 549 448 485 q 444 676 444 613 l 302 903 m 764 1421 l 764 1243 l 514 1234 l 518 1411 l 764 1421 "},"y":{"x_min":-2.71875,"x_max":1294.484375,"ha":1359,"o":"m 482 918 l 477 891 q 444 849 461 870 q 413 807 428 827 q 374 750 393 778 q 340 694 355 722 q 307 629 321 661 q 287 562 294 596 q 280 509 282 535 q 283 455 279 482 q 294 391 287 424 q 310 325 301 358 q 333 261 320 292 q 364 202 347 229 q 414 140 386 168 q 478 93 442 112 q 533 71 504 80 q 596 61 562 63 q 661 65 629 59 q 722 81 693 70 q 783 110 754 93 q 840 147 812 127 q 891 189 866 166 q 939 234 916 211 q 984 282 963 257 q 1026 329 1006 306 q 1032 345 1030 333 q 1033 376 1033 358 q 1032 418 1033 394 q 1026 469 1030 442 q 1013 537 1021 501 q 994 609 1006 573 q 963 691 981 651 q 923 766 945 732 q 872 824 900 800 q 812 859 845 849 l 812 907 l 1230 907 l 1243 729 l 1261 492 q 1268 422 1265 459 q 1276 344 1272 385 q 1283 252 1280 299 q 1289 157 1287 204 q 1292 80 1291 118 q 1293 4 1293 42 q 1293 -99 1295 -47 q 1287 -198 1291 -151 q 1270 -307 1281 -257 q 1241 -390 1258 -358 q 1203 -442 1226 -417 q 1152 -492 1181 -467 q 1097 -533 1127 -512 q 1034 -571 1067 -553 q 941 -617 990 -595 q 842 -655 892 -638 q 765 -677 804 -667 q 691 -694 727 -687 q 668 -703 680 -697 q 643 -714 656 -709 q 617 -724 630 -720 q 592 -731 604 -729 q 493 -736 542 -740 q 394 -720 443 -732 q 312 -691 352 -709 q 237 -652 272 -674 q 167 -602 199 -629 q 112 -546 135 -575 q 67 -473 82 -509 q 58 -405 52 -436 l 278 -347 q 313 -404 298 -379 q 343 -448 329 -429 q 366 -482 355 -467 q 391 -509 378 -496 q 418 -533 404 -522 q 450 -557 432 -545 q 513 -593 481 -579 q 576 -614 545 -607 q 676 -621 626 -625 q 775 -602 727 -617 q 859 -567 819 -588 q 938 -522 900 -546 q 959 -500 949 -514 q 978 -467 969 -486 q 995 -423 987 -447 q 1010 -370 1003 -398 q 1027 -286 1019 -330 q 1038 -193 1034 -242 q 1046 -88 1044 -142 q 1047 16 1048 -35 q 1041 105 1045 62 q 1032 187 1037 149 q 984 160 1007 173 q 935 132 960 146 q 873 98 904 115 q 809 66 842 81 q 743 38 777 51 q 675 16 710 25 q 605 2 641 6 q 531 -2 569 -2 q 503 -4 518 -2 q 475 -9 489 -6 q 446 -14 461 -12 q 419 -16 432 -16 q 337 -11 375 -18 q 263 9 298 -4 q 206 44 233 24 q 157 88 180 63 q 127 125 141 105 q 101 166 113 145 q 84 202 92 184 q 70 238 75 219 q 52 298 59 267 q 43 360 46 329 q 40 410 40 385 q 40 461 39 435 q 48 521 43 491 q 62 580 54 552 q 82 638 70 610 q 111 691 94 665 q 129 727 122 710 q 139 758 136 744 q 134 796 142 779 q 107 827 126 813 q 86 838 97 832 q 61 851 74 845 q 31 863 47 857 q -2 874 14 869 l -2 901 q 77 912 40 908 q 147 919 115 916 q 208 922 180 922 q 260 922 236 923 q 314 920 288 922 q 367 918 340 919 q 422 917 394 918 q 482 918 450 916 "},"Z":{"x_min":28.484375,"x_max":1395.671875,"ha":1465,"o":"m 67 652 q 69 684 69 668 q 71 717 70 701 q 81 759 71 740 q 107 794 90 778 q 146 822 124 809 q 189 846 168 835 q 237 859 214 853 q 283 872 260 865 q 330 885 306 878 q 377 897 354 891 q 447 916 410 911 q 522 922 484 922 q 598 917 558 922 q 679 907 638 912 q 764 891 722 899 q 847 877 805 882 q 913 870 880 873 q 980 866 946 868 q 1032 868 1006 866 q 1086 872 1059 869 q 1151 882 1118 876 q 1217 897 1184 888 q 1226 895 1222 899 q 1233 887 1230 892 q 1238 878 1236 882 q 1236 873 1239 873 q 1187 858 1211 868 q 1140 836 1163 849 q 1097 807 1118 823 q 1057 774 1076 792 q 1019 734 1038 755 q 983 691 1000 713 q 942 636 961 664 q 906 581 923 607 q 866 520 885 550 q 827 461 847 489 q 775 389 802 424 q 714 324 747 355 q 651 269 686 295 q 575 219 617 244 q 504 183 542 200 q 423 147 466 165 q 415 144 419 147 q 410 137 412 141 q 410 130 408 134 q 420 123 412 126 q 497 117 458 120 q 576 109 537 113 q 655 104 615 107 q 733 100 694 101 q 811 97 771 99 q 891 96 851 96 q 953 96 922 96 q 1015 99 984 97 q 1047 113 1032 105 q 1076 130 1062 120 q 1105 151 1091 139 q 1129 176 1118 162 q 1147 201 1139 187 q 1159 230 1155 215 q 1166 264 1165 246 q 1166 302 1167 282 q 1169 311 1169 307 q 1169 320 1170 316 q 1169 329 1169 325 q 1171 339 1169 333 l 1380 370 q 1384 357 1383 363 q 1387 345 1386 351 q 1390 332 1388 339 q 1395 320 1392 326 q 1379 285 1390 302 q 1354 252 1368 268 q 1323 220 1341 236 q 1285 189 1306 204 q 1241 158 1265 173 q 1189 130 1216 143 q 1141 106 1166 118 q 1090 84 1116 94 q 1024 58 1057 70 q 957 36 991 46 q 861 11 910 21 q 764 -1 813 1 q 693 -6 729 -5 q 619 -6 656 -8 q 549 -4 584 -6 q 478 0 514 -2 q 409 2 443 0 q 344 2 375 4 q 274 12 309 9 q 206 14 240 14 q 130 12 168 14 q 55 6 92 10 q 42 21 48 13 q 28 35 35 28 q 86 55 56 44 q 143 77 115 66 q 222 109 183 92 q 299 143 261 126 q 381 188 341 165 q 455 240 420 211 q 521 299 491 267 q 576 370 552 332 q 613 429 595 400 q 646 485 630 458 q 686 551 667 519 q 725 611 706 583 q 763 665 744 640 q 804 716 782 691 q 838 754 820 736 q 876 790 855 773 q 763 790 815 789 q 688 793 724 790 q 617 801 652 796 q 546 813 581 805 q 472 830 511 820 q 418 832 442 834 q 377 823 394 830 q 340 801 355 816 q 316 766 325 786 q 304 729 309 750 q 297 686 299 709 l 67 652 "},"u":{"x_min":44.765625,"x_max":1280.390625,"ha":1344,"o":"m 512 903 q 476 845 495 873 q 438 792 457 817 q 402 737 420 764 q 367 683 383 710 q 337 628 351 656 q 314 572 324 600 q 299 511 305 542 q 292 446 292 480 q 297 378 292 410 q 309 316 301 345 q 328 257 317 284 q 354 206 340 230 q 396 151 373 176 q 446 108 419 127 q 514 74 477 88 q 594 56 552 61 q 649 67 621 61 q 706 85 678 74 q 762 107 735 94 q 816 136 790 120 q 872 171 845 153 q 925 210 900 189 q 974 251 950 230 q 1018 294 998 272 q 1030 311 1025 302 q 1036 329 1034 320 q 1038 350 1038 339 q 1036 377 1038 362 q 1033 461 1033 419 q 1032 545 1033 503 q 1028 629 1032 587 q 1018 713 1025 671 q 996 777 1011 748 q 950 824 980 805 q 894 845 927 838 q 816 851 861 851 q 820 893 819 873 q 878 895 850 895 q 937 896 907 896 q 994 897 965 897 q 1053 899 1024 897 q 1111 899 1082 899 q 1169 900 1140 900 q 1213 901 1190 901 q 1258 903 1236 901 q 1261 793 1260 847 q 1264 683 1262 739 q 1266 574 1265 629 q 1269 465 1268 519 q 1272 348 1270 406 q 1274 233 1273 290 q 1277 130 1276 181 q 1280 27 1279 78 l 1048 -14 q 1045 39 1047 12 q 1044 94 1044 66 q 1042 149 1043 122 q 1040 204 1041 176 q 984 172 1011 188 q 929 139 956 155 q 876 109 903 124 q 823 80 849 93 q 750 48 788 63 q 672 23 713 32 q 632 12 653 17 q 587 5 610 8 q 540 0 564 1 q 491 -1 516 -1 q 402 -14 443 -12 q 324 -10 360 -17 q 267 2 294 -6 q 218 25 241 12 q 175 57 195 39 q 139 96 155 75 q 109 144 123 119 q 85 196 96 169 q 73 236 78 215 q 63 278 67 257 q 55 332 58 305 q 52 385 52 359 q 54 429 52 406 q 61 474 56 451 q 71 518 65 496 q 84 562 77 541 q 101 609 90 585 q 120 656 111 633 q 137 689 128 672 q 155 721 146 706 q 166 745 162 736 q 172 760 170 755 q 174 769 173 766 q 173 773 174 771 q 147 802 160 788 q 119 828 134 816 q 86 850 104 840 q 48 863 69 859 q 46 879 47 872 q 44 893 44 887 q 99 895 71 893 q 155 900 127 897 q 212 909 184 904 q 267 919 240 914 q 280 911 273 915 q 292 903 287 907 q 402 903 348 903 q 512 903 457 903 "},"k":{"x_min":-92.234375,"x_max":1585.5625,"ha":1289,"o":"m -92 1337 l -92 1368 l 359 1368 l 359 495 q 409 490 382 489 q 465 497 436 491 q 523 514 493 503 q 581 541 553 526 q 630 571 606 554 q 676 604 655 587 q 718 641 698 622 q 752 680 737 660 q 768 706 762 691 q 777 737 774 721 q 779 771 781 754 q 774 804 778 788 q 748 854 766 830 q 703 896 731 878 q 817 902 760 899 q 931 910 874 906 q 973 894 956 903 q 1002 873 990 885 q 1021 847 1014 861 q 1029 817 1028 832 q 1029 785 1032 801 q 1021 752 1026 769 q 1006 718 1015 735 q 986 684 996 701 q 941 635 967 659 q 888 591 916 611 q 845 563 866 576 q 800 539 823 550 q 756 520 778 528 q 713 504 733 511 q 770 478 743 495 q 821 440 797 462 q 883 377 854 412 q 939 303 912 341 q 983 242 961 273 q 1026 181 1005 211 q 1072 124 1048 151 q 1120 73 1095 96 q 1156 42 1137 55 q 1194 18 1174 28 q 1236 4 1215 8 q 1281 1 1257 0 q 1329 10 1307 2 q 1372 29 1352 18 q 1410 54 1392 40 q 1444 82 1428 67 q 1491 122 1467 101 q 1540 158 1515 142 q 1563 147 1551 153 q 1585 135 1574 141 q 1565 102 1578 119 q 1535 69 1553 85 q 1496 40 1517 54 q 1451 12 1475 25 q 1369 -18 1413 -5 q 1281 -37 1326 -32 q 1201 -47 1242 -43 q 1118 -51 1159 -51 q 1031 -46 1074 -51 q 949 -24 988 -40 q 899 2 923 -13 q 851 40 874 18 q 808 86 828 61 q 769 136 788 111 q 734 189 751 162 q 701 241 717 215 q 662 302 680 273 q 627 351 644 330 q 580 397 606 378 q 527 428 554 416 q 472 447 500 440 q 417 455 443 454 q 399 452 408 455 q 382 443 390 448 q 368 430 374 438 q 363 415 363 423 l 363 217 l 363 27 q 297 14 332 21 q 226 2 261 8 q 156 -11 191 -4 q 90 -24 122 -18 l 90 1125 q 82 1167 88 1146 q 66 1208 75 1188 q 52 1234 61 1222 q 36 1257 44 1246 q 5 1291 23 1274 q -33 1318 -12 1307 q -61 1329 -47 1325 q -92 1337 -75 1334 "},"g":{"x_min":42.859375,"x_max":1199,"ha":1259,"o":"m 1128 743 l 904 691 q 863 742 888 717 q 811 788 838 767 q 754 824 782 809 q 702 845 727 839 q 648 855 674 850 q 599 862 622 859 q 556 864 576 865 q 515 859 535 863 q 478 847 496 855 q 442 826 459 839 q 404 794 423 812 q 366 751 386 775 q 329 693 345 725 q 302 626 313 661 q 288 572 294 600 q 280 515 283 543 q 281 449 279 482 q 288 383 283 416 q 304 322 294 352 q 328 265 314 291 q 356 221 340 244 q 393 179 373 199 q 449 129 419 151 q 514 90 480 107 q 576 67 543 75 q 642 59 609 59 q 709 68 675 59 q 774 96 743 77 q 833 139 805 115 q 885 191 861 164 q 931 250 910 219 q 972 311 953 280 l 1199 354 q 1163 284 1181 320 q 1125 212 1144 248 q 1095 156 1110 184 q 1063 101 1079 128 q 1025 40 1045 70 q 984 -18 1005 9 q 939 -75 963 -47 q 892 -130 916 -104 q 842 -181 868 -155 q 789 -229 816 -206 q 694 -302 743 -268 q 646 -334 671 -318 q 598 -364 622 -349 q 531 -399 565 -382 q 463 -429 497 -416 q 451 -430 454 -434 q 450 -421 448 -427 q 455 -408 451 -415 q 459 -401 458 -402 q 522 -353 492 -378 q 580 -302 552 -328 q 627 -254 604 -279 q 671 -204 651 -229 q 718 -141 695 -173 q 760 -75 741 -109 q 791 -24 777 -50 q 816 28 805 1 q 815 38 819 35 q 804 44 811 42 q 792 46 798 46 q 782 46 785 46 q 731 31 758 39 q 678 16 705 23 q 620 2 649 8 q 562 -8 591 -2 q 504 -14 534 -12 q 444 -17 474 -17 q 387 -12 416 -16 q 333 0 359 -8 q 267 26 297 10 q 211 61 237 42 q 167 101 187 80 q 131 147 147 123 q 104 196 116 170 q 82 249 92 222 q 65 303 73 275 q 51 358 56 330 q 44 402 46 379 q 43 447 42 424 q 48 507 43 477 q 61 565 52 537 q 75 612 66 588 q 94 657 85 636 q 122 705 107 682 q 151 747 136 728 q 181 781 165 763 q 212 816 196 800 q 245 844 229 831 q 273 861 261 857 q 370 885 321 876 q 463 900 416 895 q 556 909 509 906 q 648 916 603 912 q 735 918 691 919 q 821 910 778 916 q 906 894 863 904 q 988 869 949 884 q 1032 848 1011 861 q 1070 817 1052 835 q 1102 781 1087 801 q 1128 743 1117 762 "},"t":{"x_min":-126.140625,"x_max":1323.78125,"ha":1389,"o":"m 1307 995 q 1315 984 1311 990 q 1323 972 1319 979 q 1249 938 1288 954 q 1167 908 1209 922 q 1081 880 1125 893 q 992 857 1037 868 q 924 842 958 849 q 855 830 889 835 q 736 815 796 820 q 676 810 706 812 q 614 808 645 808 q 571 791 595 804 q 523 759 547 778 q 484 726 504 744 q 448 687 465 708 q 415 644 431 667 q 386 599 400 622 q 362 537 371 568 q 355 477 354 507 q 366 398 356 436 q 393 325 377 360 q 438 250 412 286 q 495 185 465 215 q 548 143 520 162 q 604 109 576 124 q 678 84 641 92 q 750 78 716 75 q 804 82 779 80 q 851 87 828 84 q 894 96 873 90 q 937 109 915 101 q 1000 141 967 122 q 1079 192 1034 161 q 1129 229 1102 208 q 1186 272 1155 249 q 1201 264 1193 268 q 1216 256 1208 260 q 1180 219 1200 238 q 1133 180 1159 199 q 1085 147 1110 164 q 1032 116 1060 131 q 972 89 1003 103 q 907 63 941 75 q 830 41 870 51 q 750 25 790 31 q 691 13 716 20 q 642 0 665 6 q 596 -10 619 -5 q 542 -16 572 -16 q 472 -10 507 -16 q 402 5 436 -5 q 337 34 368 16 q 276 77 305 52 q 232 122 253 97 q 193 176 211 146 q 168 224 180 199 q 146 278 155 249 q 132 331 138 303 q 122 389 126 359 q 122 451 118 419 q 141 516 127 484 q 172 579 153 547 q 215 638 192 610 q 268 694 240 668 q 328 741 297 720 q 389 780 358 763 q 453 808 421 797 q 362 818 409 815 q 264 823 314 821 q 166 823 215 823 q 69 827 116 824 q 21 823 43 826 q -23 815 -1 820 q -65 802 -44 809 q -107 785 -85 794 q -116 793 -111 789 q -126 801 -122 797 q -92 817 -109 809 q -56 832 -74 824 q -13 853 -35 843 q 29 873 8 863 q 76 893 52 885 q 124 907 100 901 q 186 918 155 915 q 246 923 217 922 q 358 924 302 926 q 470 923 413 922 q 545 920 507 922 q 621 915 583 918 q 697 910 659 912 q 771 907 735 907 q 847 907 809 906 q 922 910 884 908 q 996 912 958 911 q 1071 912 1033 914 q 1137 928 1106 918 q 1196 949 1167 938 q 1251 973 1223 961 q 1307 995 1279 986 "},"e":{"x_min":43.40625,"x_max":1112.203125,"ha":1168,"o":"m 1079 760 l 971 732 l 862 703 q 826 748 846 728 q 782 786 805 769 q 720 823 752 808 q 655 847 689 839 q 604 857 630 854 q 554 859 579 861 q 497 848 524 857 q 447 821 469 839 q 419 801 434 811 q 389 782 404 792 q 362 761 375 773 q 337 736 349 750 q 309 692 322 718 q 287 629 297 665 q 278 578 282 606 q 271 516 273 550 q 276 507 271 509 q 290 505 282 505 q 305 506 297 505 q 317 507 313 507 q 398 508 358 507 q 480 511 439 509 q 572 513 526 512 q 664 515 618 514 q 769 518 716 516 q 874 519 821 519 q 942 519 908 519 q 1010 519 976 519 q 1025 512 1017 519 q 1038 497 1033 505 q 1045 479 1044 489 q 1041 465 1047 469 q 997 431 1022 446 q 945 406 972 417 q 888 389 918 396 q 831 379 858 382 q 820 379 826 379 q 809 381 815 379 q 798 384 804 382 q 789 389 793 386 q 783 394 785 391 q 783 401 782 397 q 788 410 783 405 q 802 420 793 415 q 809 423 805 421 q 815 429 812 425 q 820 436 817 432 q 824 443 823 439 q 826 450 826 447 q 822 457 826 454 q 813 461 819 459 q 798 465 808 463 q 742 467 770 466 q 686 470 714 469 q 615 469 651 470 q 543 469 579 469 q 481 466 512 467 q 419 463 450 465 q 356 462 387 463 q 292 461 325 461 q 282 457 287 459 q 276 451 278 455 q 273 441 273 447 q 275 425 273 435 q 286 365 279 396 q 306 306 294 335 q 334 249 318 276 q 368 198 349 222 q 409 152 387 173 q 455 115 431 131 q 506 88 480 99 q 560 73 533 77 q 629 63 595 67 q 697 58 663 58 q 765 67 731 58 q 835 99 800 75 q 868 118 851 108 q 903 141 885 128 q 937 166 920 153 q 969 192 954 179 q 998 219 984 206 q 1024 246 1011 233 q 1051 273 1037 260 q 1083 298 1066 286 l 1112 298 q 1097 263 1106 280 q 1075 227 1089 245 q 1053 200 1066 214 q 1028 174 1041 187 q 996 146 1013 160 q 961 120 979 132 q 925 98 944 108 q 889 80 907 88 q 821 52 857 65 q 751 27 786 39 q 677 8 714 16 q 603 -5 640 0 q 558 -11 581 -9 q 514 -14 535 -13 q 470 -14 492 -14 q 428 -10 448 -13 q 382 -3 405 -8 q 339 9 359 1 q 300 26 320 17 q 263 43 280 35 q 235 59 249 51 q 208 75 221 67 q 174 103 191 88 q 143 135 158 118 q 122 164 132 147 q 101 199 111 180 q 84 238 92 217 q 69 283 75 259 q 59 322 63 302 q 51 364 55 343 q 46 401 48 382 q 43 439 44 420 q 43 476 43 458 q 46 514 43 495 q 52 551 48 533 q 61 588 55 569 q 77 631 67 610 q 99 672 86 652 q 120 708 108 690 q 147 740 132 725 q 189 781 166 762 q 238 817 211 801 q 294 849 264 835 q 356 872 324 862 q 419 885 386 880 q 486 891 451 891 q 542 896 514 892 q 599 906 571 900 q 653 915 626 911 q 703 919 680 919 q 756 918 729 919 q 808 914 782 918 q 859 906 834 911 q 910 892 885 900 q 963 868 937 882 q 1013 835 990 854 q 1049 801 1032 820 q 1079 760 1066 782 "},"J":{"x_min":-271.265625,"x_max":764.96875,"ha":803,"o":"m 302 903 l 705 903 q 699 752 702 827 q 697 604 697 678 q 697 438 697 520 q 698 272 698 355 q 701 136 699 204 q 703 0 702 67 q 702 -59 703 -28 q 699 -119 701 -89 q 697 -179 698 -149 q 695 -240 695 -210 q 684 -345 695 -295 q 646 -434 674 -394 q 583 -505 619 -474 q 504 -556 546 -537 q 447 -579 476 -569 q 391 -598 419 -590 q 320 -615 356 -607 q 249 -626 284 -622 q 185 -632 217 -629 q 122 -636 153 -634 q 57 -638 89 -637 q -5 -640 25 -640 q -53 -636 -29 -641 q -99 -620 -77 -630 q -140 -595 -120 -610 q -176 -562 -160 -580 q -208 -524 -193 -545 q -234 -481 -223 -503 q -256 -435 -246 -458 q -271 -389 -265 -412 l -147 -378 l -25 -368 q -2 -416 -12 -391 q 17 -465 6 -440 q 43 -510 28 -488 q 81 -552 58 -533 q 119 -576 101 -566 q 153 -590 136 -585 q 185 -595 170 -595 q 214 -592 200 -595 q 242 -585 229 -590 q 267 -573 254 -580 q 290 -558 279 -565 q 311 -542 302 -550 q 366 -489 343 -519 q 405 -425 389 -459 q 430 -354 420 -391 q 444 -279 440 -317 q 455 -161 451 -221 q 461 -40 459 -101 q 461 77 462 17 q 459 196 461 136 q 455 308 458 252 q 450 421 453 364 q 446 549 448 485 q 444 676 444 613 l 302 903 m 764 1421 l 764 1243 l 514 1234 l 518 1411 l 764 1421 "},"W":{"x_min":-44.765625,"x_max":2161.546875,"ha":2269,"o":"m 497 927 l 497 901 q 453 844 474 873 q 413 783 432 815 q 376 722 393 754 q 345 657 359 690 q 323 598 333 627 q 305 537 313 568 q 294 473 298 505 q 288 408 290 440 q 295 337 287 374 q 318 264 303 301 q 355 196 333 229 q 404 141 377 164 q 447 107 424 122 q 493 82 470 93 q 541 65 518 73 q 587 55 564 58 q 632 63 609 56 q 678 78 655 70 q 725 100 702 88 q 771 124 748 112 q 818 155 796 139 q 861 185 840 170 q 905 224 887 206 q 931 254 923 242 q 929 308 930 283 q 929 356 929 333 q 931 402 930 381 q 935 444 933 424 q 946 497 939 472 q 961 550 952 523 q 981 604 969 576 q 1009 665 994 633 q 1014 705 1017 683 q 999 751 1011 728 q 973 794 990 773 q 938 832 957 815 q 914 851 926 842 q 890 865 901 859 q 868 872 878 870 q 847 872 857 873 l 849 907 q 934 914 895 911 q 1007 918 973 916 q 1102 916 1059 918 q 1184 911 1144 914 q 1263 903 1223 907 q 1350 896 1303 899 q 1322 830 1338 863 q 1289 763 1306 797 q 1247 676 1269 720 q 1209 592 1226 633 q 1180 510 1192 550 q 1166 434 1169 470 q 1169 367 1165 402 q 1185 298 1174 332 q 1211 233 1196 265 q 1246 174 1227 202 q 1297 118 1269 143 q 1357 75 1325 92 q 1428 51 1391 58 q 1508 50 1466 44 q 1572 71 1542 55 q 1631 108 1603 86 q 1666 140 1649 123 q 1700 176 1684 157 q 1734 215 1718 195 q 1767 256 1751 236 q 1799 296 1783 275 q 1832 336 1816 317 q 1865 373 1848 355 q 1900 408 1882 391 l 1890 545 l 1882 649 l 1875 747 q 1845 799 1862 775 q 1805 840 1828 823 q 1752 869 1782 858 q 1685 884 1722 880 q 1679 887 1680 884 q 1677 894 1679 891 q 1675 901 1676 897 q 1669 907 1675 906 q 1785 918 1729 915 q 1897 923 1841 922 q 1953 925 1924 925 q 2008 926 1981 926 q 2065 927 2037 926 q 2122 927 2094 927 q 2121 843 2121 889 q 2124 745 2122 797 q 2126 686 2124 717 q 2130 625 2128 656 q 2135 575 2132 600 q 2141 523 2138 549 q 2149 462 2145 493 q 2153 400 2152 431 q 2158 337 2156 368 q 2160 272 2160 305 q 2161 210 2162 241 q 2159 147 2160 179 q 2154 87 2157 118 q 2147 28 2151 56 l 1920 -1 l 1920 134 l 1920 249 l 1894 254 q 1839 198 1867 225 q 1783 149 1812 172 q 1727 106 1756 126 q 1669 71 1698 86 q 1586 33 1627 48 q 1508 8 1546 17 q 1433 -2 1468 0 q 1367 -1 1398 -4 q 1317 -16 1342 -12 q 1264 -20 1291 -21 q 1192 -8 1228 -18 q 1121 17 1155 1 q 1076 43 1098 29 q 1036 73 1055 56 q 997 108 1014 89 q 968 145 980 127 q 927 116 950 131 q 876 88 904 101 q 821 61 850 74 q 759 37 792 48 q 708 21 735 28 q 651 9 680 14 q 592 2 622 4 q 530 0 562 0 q 480 -10 505 -6 q 429 -14 455 -13 q 344 -7 386 -14 q 264 17 302 0 q 219 41 241 27 q 179 73 198 55 q 145 105 161 88 q 118 142 130 122 q 95 180 105 160 q 77 222 85 200 q 63 263 69 242 q 54 306 58 284 q 47 413 46 356 q 51 456 48 435 q 56 497 54 477 q 68 542 62 520 q 81 584 74 564 q 96 627 88 606 q 115 667 105 648 q 131 701 123 684 q 147 733 139 717 q 155 754 155 741 q 147 781 154 766 q 117 811 132 796 q 82 838 101 826 q 50 860 67 850 q 13 877 32 870 q -13 887 0 882 q -42 895 -27 892 l -44 923 l 136 925 l 345 926 l 497 927 "},"v":{"x_min":-28.484375,"x_max":1350.90625,"ha":1417,"o":"m 359 927 l 374 891 q 418 815 396 853 q 465 739 440 777 q 519 655 491 697 q 576 571 547 613 q 634 486 604 528 q 691 404 663 444 q 748 320 720 362 q 804 236 777 278 q 844 303 823 268 q 885 375 865 339 q 922 442 904 408 q 957 511 939 476 q 988 581 973 545 q 1017 655 1003 617 q 1033 710 1025 682 q 1048 769 1041 739 q 1045 834 1051 811 q 1022 870 1038 858 q 979 883 1007 881 q 910 881 952 885 l 910 906 l 1144 919 l 1344 930 l 1350 903 q 1332 893 1341 899 q 1312 878 1323 887 q 1293 861 1303 870 q 1273 843 1284 853 q 1241 809 1257 827 q 1208 770 1224 790 q 1174 729 1190 750 q 1142 686 1158 708 q 1109 641 1125 663 q 1078 599 1093 619 q 1039 541 1059 571 q 1000 482 1019 512 q 952 402 976 443 q 903 318 927 360 q 866 256 884 288 q 828 191 847 223 q 794 132 811 162 q 759 73 777 103 q 730 27 744 50 q 701 -18 716 4 l 617 1 q 602 39 611 17 q 581 89 594 61 q 562 133 573 109 q 538 183 550 157 q 515 227 527 204 q 491 275 503 250 q 463 322 477 298 q 436 373 450 347 q 408 418 423 394 q 381 465 394 442 q 351 511 366 488 q 321 556 336 534 q 287 604 305 580 q 253 651 269 629 q 215 698 234 675 q 179 741 196 721 q 128 792 154 769 q 78 834 103 816 q 23 869 50 855 q -28 891 -2 884 l -28 918 l 169 923 l 359 927 "},"s":{"x_min":33.90625,"x_max":1043.46875,"ha":1096,"o":"m 755 725 q 727 754 741 740 q 697 779 713 767 q 664 801 680 790 q 630 820 648 812 q 558 849 596 838 q 482 863 520 861 q 444 861 463 865 q 408 847 425 857 q 374 826 390 839 q 344 797 358 813 q 322 768 332 783 q 306 736 313 752 q 292 695 297 716 q 291 653 288 674 q 301 613 294 632 q 317 581 307 595 q 346 550 329 562 q 382 530 363 538 q 417 519 398 523 q 454 512 435 515 q 492 508 473 509 q 527 507 511 507 q 560 506 542 505 q 600 509 579 507 q 644 513 621 511 q 690 516 667 515 q 758 520 724 519 q 826 518 792 520 q 887 507 857 515 q 944 485 918 500 q 988 450 968 472 q 1022 400 1009 429 q 1035 360 1030 382 q 1043 314 1040 339 q 1041 270 1044 291 q 1032 230 1038 249 q 1011 185 1025 206 q 977 146 996 164 q 937 113 960 128 q 891 86 915 97 q 845 67 869 75 q 797 51 821 58 q 738 35 769 42 q 678 25 708 29 q 633 19 655 21 q 591 16 611 17 q 531 2 561 8 q 472 -8 501 -4 q 415 -14 443 -12 q 362 -17 387 -17 q 294 -15 326 -18 q 233 -4 261 -12 q 191 8 211 0 q 154 27 172 16 q 111 60 131 42 q 77 103 92 78 q 50 154 61 126 q 33 218 40 183 l 271 248 q 279 211 272 229 q 297 177 286 193 q 320 146 307 161 q 347 118 333 131 q 378 94 362 105 q 410 73 394 82 q 441 59 425 65 q 470 50 457 52 q 545 39 511 40 q 609 43 580 37 q 674 64 645 48 q 724 101 703 80 q 756 143 743 120 q 778 189 770 165 q 793 236 788 212 q 800 280 798 260 q 798 322 801 302 q 785 362 794 343 q 769 388 778 375 q 750 413 760 401 q 723 437 737 425 q 694 457 709 448 q 663 471 679 465 q 633 480 648 477 q 611 480 626 480 q 577 478 596 480 q 533 475 557 477 q 486 470 509 473 q 438 465 462 467 q 395 461 415 463 q 360 457 375 459 q 339 455 345 455 q 280 455 309 454 q 226 461 252 457 q 172 476 198 466 q 128 499 147 485 q 94 526 109 511 q 69 558 80 541 q 52 596 58 576 q 46 638 47 617 q 55 697 46 667 q 88 759 65 728 q 119 793 101 775 q 160 828 136 811 q 200 855 179 842 q 246 882 221 869 q 311 893 278 888 q 379 903 345 899 q 440 909 410 907 q 499 912 470 911 q 557 916 528 915 q 610 916 585 916 q 655 916 634 916 q 690 915 675 916 q 732 910 710 914 q 776 901 754 907 q 820 889 798 896 q 862 872 842 881 q 901 850 882 862 q 934 824 919 838 q 960 792 949 809 q 976 756 971 775 l 755 725 "},"B":{"x_min":-27.125,"x_max":1203.90625,"ha":1265,"o":"m -21 901 q 35 899 6 900 q 90 897 63 899 q 158 895 126 896 q 219 895 189 895 q 277 893 249 893 q 330 892 305 892 q 381 891 356 892 q 429 891 406 891 q 507 891 470 891 q 581 892 545 892 q 664 894 623 893 q 748 896 705 895 q 798 893 771 897 q 851 882 824 889 q 907 864 878 874 q 964 842 935 854 q 1003 816 984 832 q 1034 779 1021 800 q 1057 733 1049 758 q 1064 682 1064 708 q 1051 622 1063 652 q 1010 566 1038 592 q 956 528 988 546 q 881 499 925 511 q 941 492 912 497 q 996 477 969 486 q 1045 457 1022 469 q 1089 431 1068 444 q 1133 393 1113 413 q 1167 351 1154 373 q 1191 304 1182 328 q 1203 256 1200 280 q 1199 202 1205 229 q 1178 150 1193 174 q 1145 107 1166 127 q 1095 71 1124 88 q 1048 50 1074 59 q 992 32 1022 40 q 927 21 963 25 q 851 16 892 17 q 812 14 832 16 q 771 13 792 13 q 718 8 745 10 q 665 5 691 6 q 577 2 619 4 q 500 5 534 1 q 459 10 478 8 q 423 12 440 12 q 392 13 406 13 q 364 12 378 13 q 337 10 351 12 q 309 7 324 9 q 278 3 294 5 q 242 0 261 1 q 208 -2 226 -1 q 169 -4 189 -4 q 129 -4 149 -4 q 90 -2 109 -4 q 54 -1 71 -2 q 23 0 36 0 q 0 2 9 1 q -12 4 -8 4 q 11 16 -5 12 q 51 24 28 21 q 97 31 73 28 q 141 39 122 35 q 144 82 143 61 q 146 126 145 104 q 149 169 147 147 q 150 212 150 191 q 151 250 150 231 q 151 288 151 269 q 153 337 153 313 q 153 383 153 360 q 151 461 153 423 q 146 537 149 500 q 139 619 143 579 q 127 695 134 659 q 119 721 124 708 q 105 749 113 735 q 87 778 97 763 q 66 807 77 793 q 42 832 54 820 q 17 852 29 843 q -5 867 5 861 q -27 874 -16 873 l -24 888 l -21 901 m 420 849 q 408 849 415 850 q 397 845 402 847 q 388 837 391 842 q 385 826 385 832 q 383 786 383 805 q 382 747 382 766 q 383 709 382 728 q 385 670 383 690 q 388 623 386 648 q 391 572 390 599 q 395 526 393 550 q 397 476 397 503 q 486 480 446 477 q 562 489 526 484 q 636 503 600 495 q 709 520 671 511 q 750 539 732 527 q 782 565 769 550 q 807 609 798 585 q 815 659 815 633 q 807 709 815 684 q 783 755 800 733 q 755 785 771 771 q 718 808 739 800 q 646 832 683 824 q 572 842 610 839 q 495 847 534 846 q 420 849 457 847 m 397 435 q 394 352 396 394 q 391 269 393 310 q 389 185 390 227 q 386 103 387 143 q 388 87 386 93 q 394 77 390 81 q 404 72 398 73 q 413 71 409 71 q 475 70 446 71 q 530 66 504 69 q 597 59 565 63 q 657 50 629 54 q 710 45 684 47 q 759 44 735 43 q 807 48 783 44 q 857 61 831 52 q 901 86 882 69 q 931 124 919 103 q 948 172 944 146 q 953 225 953 198 q 943 281 952 253 q 918 335 934 309 q 885 374 904 356 q 842 404 865 391 q 790 425 816 416 q 736 442 764 435 q 681 453 709 448 q 625 459 653 458 q 570 461 598 461 q 515 458 542 461 q 456 449 485 455 q 397 435 427 443 "},"H":{"x_min":-48.828125,"x_max":1296.203125,"ha":1362,"o":"m 406 1455 q 408 1451 412 1454 q 396 1444 404 1448 q 379 1436 389 1440 q 364 1428 370 1432 q 364 1360 364 1394 q 364 1292 364 1326 q 364 1224 364 1258 q 364 1155 364 1190 q 364 1068 364 1112 q 364 980 364 1025 q 364 893 364 937 q 364 805 364 849 q 419 835 391 823 q 476 857 447 847 q 534 875 504 866 q 595 895 564 884 q 667 900 630 897 q 737 906 703 903 q 788 914 760 911 q 846 918 816 918 q 907 916 876 919 q 971 906 938 912 q 1027 891 999 900 q 1081 868 1055 881 q 1133 839 1108 855 q 1180 802 1158 823 q 1236 733 1211 773 q 1276 646 1261 694 q 1292 564 1287 609 q 1295 467 1298 519 q 1291 376 1295 420 q 1279 291 1287 332 q 1257 208 1270 248 q 1226 134 1243 168 q 1188 67 1209 99 q 1143 10 1167 36 q 1093 -35 1120 -13 q 1037 -77 1066 -58 q 954 -122 998 -103 q 865 -153 910 -141 q 773 -172 819 -165 q 680 -179 727 -179 q 745 -140 714 -162 q 804 -92 775 -118 q 858 -37 832 -66 q 906 21 884 -8 q 954 101 933 59 q 992 185 976 142 q 1015 261 1005 222 q 1030 337 1025 299 q 1036 411 1036 374 q 1034 485 1037 448 q 1026 544 1032 515 q 1011 602 1021 573 q 991 657 1003 630 q 964 710 979 684 q 920 756 941 736 q 878 792 899 777 q 809 836 842 821 q 748 854 777 851 q 674 842 710 857 q 600 800 638 827 q 557 755 579 778 q 516 709 535 732 q 478 658 496 684 q 442 604 459 632 q 409 549 425 577 q 378 491 393 520 q 349 427 363 459 q 322 362 336 396 q 320 280 321 321 q 317 199 318 240 q 314 136 316 168 q 311 71 313 104 q 302 40 307 56 q 291 9 297 24 q 231 4 261 6 q 170 0 200 1 q 110 -5 141 -2 q 50 -10 80 -8 q 52 59 51 23 q 56 131 54 96 q 61 204 59 168 q 65 278 63 241 q 71 371 67 324 q 78 466 75 419 q 84 561 81 514 q 89 653 88 609 q 94 747 92 701 q 99 839 97 793 q 102 940 100 889 q 104 1040 104 991 q 102 1165 104 1104 q 97 1285 100 1227 q 75 1342 90 1318 q 39 1388 59 1367 q -4 1428 18 1409 q -48 1470 -27 1448 q 58 1470 2 1470 q 170 1470 113 1471 q 286 1465 227 1468 q 406 1455 345 1462 "},"c":{"x_min":44.3125,"x_max":1128.46875,"ha":1184,"o":"m 1128 736 l 888 712 q 846 760 866 739 q 819 786 832 774 q 792 807 805 797 q 740 837 767 824 q 684 861 713 850 q 617 871 649 873 q 554 858 584 869 q 495 830 523 847 q 440 794 466 813 q 391 752 413 775 q 352 702 368 729 q 319 639 332 672 q 299 572 306 606 q 290 505 292 539 q 292 439 288 472 q 303 375 295 406 q 322 313 310 343 q 347 261 333 286 q 378 217 362 237 q 423 166 398 188 q 474 126 447 143 q 517 101 495 112 q 564 80 539 89 q 625 60 594 67 q 687 48 656 52 q 739 46 713 44 q 790 55 764 48 q 842 72 816 62 q 892 94 868 82 q 943 124 918 108 q 991 157 968 141 q 1032 186 1013 172 q 1068 214 1051 200 l 1105 193 q 1071 155 1089 173 q 1033 123 1053 138 q 994 94 1014 107 q 952 70 973 81 q 908 48 930 58 q 862 31 885 39 q 816 17 839 24 q 770 6 793 10 q 715 -2 743 1 q 659 -9 687 -6 q 601 -13 630 -12 q 543 -14 572 -14 q 471 -11 507 -14 q 401 -1 435 -8 q 320 18 359 5 q 272 39 295 27 q 229 67 249 51 q 198 95 212 81 q 169 126 183 109 q 139 163 153 143 q 113 204 126 183 q 91 246 101 225 q 74 288 81 268 q 62 327 67 307 q 52 367 56 347 q 46 419 48 393 q 44 473 43 446 q 48 519 44 496 q 56 564 51 542 q 71 607 62 587 q 92 646 80 627 q 118 686 104 665 q 147 725 132 706 q 180 762 164 744 q 214 797 196 781 q 248 827 230 813 q 284 851 267 840 q 329 873 306 863 q 375 887 352 882 q 431 896 404 892 q 488 901 459 900 q 545 906 516 904 q 603 908 575 907 q 670 912 637 910 q 735 916 703 915 q 800 918 767 919 q 865 911 832 916 q 942 888 904 903 q 1014 851 980 873 q 1045 829 1030 840 q 1074 804 1060 817 q 1102 771 1089 789 q 1128 736 1116 754 "},"q":{"x_min":42.5,"x_max":1717.125,"ha":1289,"o":"m 482 895 q 549 912 514 906 q 625 920 585 919 q 683 920 653 922 q 743 914 713 918 q 820 896 782 907 q 895 869 858 885 q 951 838 923 855 q 1003 800 979 820 q 1050 752 1028 778 q 1090 697 1072 727 q 1113 654 1102 676 q 1132 607 1124 632 q 1150 539 1143 575 q 1158 465 1156 504 q 1156 418 1159 442 q 1147 371 1154 394 q 1130 327 1140 349 q 1109 283 1120 305 q 1080 235 1095 259 q 1048 188 1064 211 q 1021 153 1034 170 q 995 120 1007 136 q 952 75 975 96 q 904 36 930 54 q 838 -2 873 14 q 767 -33 802 -18 q 703 -59 736 -47 q 637 -84 670 -70 q 573 -109 604 -96 q 509 -139 541 -123 q 560 -153 535 -146 q 609 -166 584 -160 q 658 -179 633 -173 q 708 -192 683 -185 q 756 -205 732 -199 q 804 -218 779 -211 q 855 -232 830 -225 q 906 -245 880 -240 q 965 -260 935 -253 q 1022 -272 994 -267 q 1093 -281 1059 -278 q 1162 -284 1128 -284 q 1222 -282 1193 -284 q 1280 -273 1251 -279 q 1395 -237 1338 -261 q 1437 -212 1416 -225 q 1477 -185 1458 -199 q 1516 -160 1497 -173 q 1553 -134 1535 -147 q 1588 -106 1572 -120 q 1622 -75 1605 -92 q 1654 -44 1639 -61 q 1684 -8 1669 -27 q 1700 -14 1692 -12 q 1717 -20 1708 -17 q 1673 -82 1699 -52 q 1615 -138 1647 -111 q 1546 -189 1584 -165 q 1467 -236 1509 -214 q 1385 -273 1428 -256 q 1296 -303 1342 -290 q 1190 -331 1245 -320 q 1081 -348 1136 -343 q 1043 -354 1060 -351 q 1011 -362 1026 -358 q 981 -370 996 -366 q 948 -377 965 -374 q 910 -379 930 -378 q 863 -377 889 -379 q 802 -369 836 -375 q 727 -352 769 -363 q 653 -332 691 -344 q 575 -310 615 -321 q 495 -288 535 -299 q 415 -267 454 -276 q 330 -248 371 -256 q 254 -237 290 -240 q 206 -238 229 -236 q 168 -245 184 -240 q 165 -242 166 -244 q 162 -237 164 -240 q 158 -233 160 -236 q 155 -229 157 -231 q 231 -201 193 -215 q 307 -174 269 -187 q 380 -147 344 -161 q 450 -120 416 -134 q 521 -89 486 -105 q 587 -55 556 -73 q 641 -21 615 -39 q 690 14 667 -4 q 621 0 655 6 q 556 -9 588 -5 q 477 -15 515 -14 q 402 -13 439 -16 q 329 0 364 -9 q 263 23 294 8 q 211 52 236 35 q 166 93 187 70 q 128 141 146 115 q 96 200 111 168 q 77 248 86 222 q 62 303 69 275 q 52 349 56 325 q 46 400 48 374 q 43 501 40 453 q 51 559 46 531 q 65 611 56 587 q 86 665 73 640 q 115 713 99 690 q 148 754 130 735 q 185 788 166 773 q 246 829 214 811 q 310 859 278 847 q 401 885 356 877 q 482 895 446 893 m 473 854 q 426 821 448 840 q 385 778 404 801 q 348 729 364 755 q 320 675 332 702 q 302 633 310 655 q 290 591 294 611 q 278 524 280 557 q 278 465 275 492 q 290 398 282 434 q 310 326 298 363 q 340 253 322 290 q 383 184 358 217 q 421 145 400 164 q 466 109 442 126 q 536 75 497 89 q 622 55 575 61 q 681 52 651 52 q 747 55 712 51 q 779 88 763 70 q 812 128 796 107 q 836 164 824 145 q 858 204 847 183 q 881 257 870 229 q 900 316 892 284 q 914 380 908 345 q 922 453 919 415 q 916 522 925 486 q 888 594 907 558 q 845 664 870 630 q 786 728 819 698 q 718 783 755 759 q 640 826 680 808 q 557 850 599 842 q 473 854 515 858 "},"b":{"x_min":-27.125,"x_max":1203.90625,"ha":1265,"o":"m -21 901 q 35 899 6 900 q 90 897 63 899 q 158 895 126 896 q 219 895 189 895 q 277 893 249 893 q 330 892 305 892 q 381 891 356 892 q 429 891 406 891 q 507 891 470 891 q 581 892 545 892 q 664 894 623 893 q 748 896 705 895 q 798 893 771 897 q 851 882 824 889 q 907 864 878 874 q 964 842 935 854 q 1003 816 984 832 q 1034 779 1021 800 q 1057 733 1049 758 q 1064 682 1064 708 q 1051 622 1063 652 q 1010 566 1038 592 q 956 528 988 546 q 881 499 925 511 q 941 492 912 497 q 996 477 969 486 q 1045 457 1022 469 q 1089 431 1068 444 q 1133 393 1113 413 q 1167 351 1154 373 q 1191 304 1182 328 q 1203 256 1200 280 q 1199 202 1205 229 q 1178 150 1193 174 q 1145 107 1166 127 q 1095 71 1124 88 q 1048 50 1074 59 q 992 32 1022 40 q 927 21 963 25 q 851 16 892 17 q 812 14 832 16 q 771 13 792 13 q 718 8 745 10 q 665 5 691 6 q 577 2 619 4 q 500 5 534 1 q 459 10 478 8 q 423 12 440 12 q 392 13 406 13 q 364 12 378 13 q 337 10 351 12 q 309 7 324 9 q 278 3 294 5 q 242 0 261 1 q 208 -2 226 -1 q 169 -4 189 -4 q 129 -4 149 -4 q 90 -2 109 -4 q 54 -1 71 -2 q 23 0 36 0 q 0 2 9 1 q -12 4 -8 4 q 11 16 -5 12 q 51 24 28 21 q 97 31 73 28 q 141 39 122 35 q 144 82 143 61 q 146 126 145 104 q 149 169 147 147 q 150 212 150 191 q 151 250 150 231 q 151 288 151 269 q 153 337 153 313 q 153 383 153 360 q 151 461 153 423 q 146 537 149 500 q 139 619 143 579 q 127 695 134 659 q 119 721 124 708 q 105 749 113 735 q 87 778 97 763 q 66 807 77 793 q 42 832 54 820 q 17 852 29 843 q -5 867 5 861 q -27 874 -16 873 l -24 888 l -21 901 m 420 849 q 408 849 415 850 q 397 845 402 847 q 388 837 391 842 q 385 826 385 832 q 383 786 383 805 q 382 747 382 766 q 383 709 382 728 q 385 670 383 690 q 388 623 386 648 q 391 572 390 599 q 395 526 393 550 q 397 476 397 503 q 486 480 446 477 q 562 489 526 484 q 636 503 600 495 q 709 520 671 511 q 750 539 732 527 q 782 565 769 550 q 807 609 798 585 q 815 659 815 633 q 807 709 815 684 q 783 755 800 733 q 755 785 771 771 q 718 808 739 800 q 646 832 683 824 q 572 842 610 839 q 495 847 534 846 q 420 849 457 847 m 397 435 q 394 352 396 394 q 391 269 393 310 q 389 185 390 227 q 386 103 387 143 q 388 87 386 93 q 394 77 390 81 q 404 72 398 73 q 413 71 409 71 q 475 70 446 71 q 530 66 504 69 q 597 59 565 63 q 657 50 629 54 q 710 45 684 47 q 759 44 735 43 q 807 48 783 44 q 857 61 831 52 q 901 86 882 69 q 931 124 919 103 q 948 172 944 146 q 953 225 953 198 q 943 281 952 253 q 918 335 934 309 q 885 374 904 356 q 842 404 865 391 q 790 425 816 416 q 736 442 764 435 q 681 453 709 448 q 625 459 653 458 q 570 461 598 461 q 515 458 542 461 q 456 449 485 455 q 397 435 427 443 "},"D":{"x_min":43.203125,"x_max":1206.53125,"ha":1267,"o":"m 550 1293 q 535 1264 538 1280 q 539 1223 533 1247 q 546 1208 541 1216 q 559 1192 552 1200 q 576 1175 566 1184 q 596 1158 585 1166 q 616 1143 606 1150 q 636 1129 626 1136 q 653 1117 645 1123 q 667 1109 661 1112 q 722 1074 694 1093 q 779 1037 751 1056 q 825 1007 802 1022 q 869 975 847 991 q 926 933 897 954 q 981 889 954 911 q 1032 845 1007 868 q 1079 800 1057 821 q 1123 748 1104 777 q 1158 687 1143 718 q 1185 619 1174 655 q 1201 547 1196 584 q 1206 476 1207 512 q 1199 405 1205 440 q 1184 354 1193 379 q 1159 306 1174 328 q 1136 271 1148 288 q 1109 238 1124 253 q 1081 205 1095 221 q 1049 176 1066 189 q 1015 151 1033 162 q 979 130 998 139 q 943 113 961 120 q 906 97 925 105 q 840 69 873 85 q 771 43 807 54 q 693 21 735 31 q 600 1 651 12 q 526 -10 562 -5 q 453 -14 489 -16 q 424 -13 438 -14 q 395 -9 410 -12 q 362 -3 379 -6 q 325 5 345 0 q 295 18 311 9 q 261 37 278 27 q 230 59 245 48 q 206 78 215 70 q 198 86 203 81 q 186 99 192 92 q 173 113 180 105 q 160 128 166 120 q 148 145 154 136 q 136 160 142 153 q 127 172 131 166 q 120 183 123 179 q 96 229 108 202 q 73 286 84 256 q 54 344 62 314 q 44 398 47 374 q 44 467 42 432 q 51 535 46 501 q 68 604 58 571 q 93 668 78 637 q 145 755 115 714 q 212 827 174 796 q 296 878 250 858 q 394 901 341 897 q 438 906 410 903 q 496 914 465 910 q 522 915 505 915 q 558 916 539 915 q 592 917 576 916 q 618 920 609 918 q 619 922 619 920 q 617 925 618 923 q 613 927 615 926 q 611 931 611 929 q 592 947 604 939 q 564 962 579 954 q 533 977 549 969 q 504 995 518 986 q 477 1013 491 1003 q 451 1031 463 1022 q 428 1049 439 1040 q 409 1067 417 1059 q 384 1089 400 1076 q 351 1116 368 1102 q 318 1141 335 1129 q 291 1159 302 1152 q 279 1169 284 1163 q 269 1183 273 1175 q 259 1198 264 1190 q 250 1209 254 1205 q 236 1227 245 1215 q 217 1253 226 1239 q 199 1279 207 1266 q 187 1293 191 1291 q 179 1308 179 1302 q 183 1318 179 1314 q 198 1324 188 1322 q 215 1326 207 1326 q 238 1327 227 1327 q 257 1327 249 1326 q 296 1331 275 1330 q 339 1334 317 1333 q 383 1336 362 1336 q 421 1336 404 1336 q 445 1338 431 1336 q 477 1341 459 1340 q 513 1344 495 1342 q 546 1345 531 1345 q 571 1344 562 1345 q 581 1339 580 1344 q 575 1324 583 1334 q 550 1293 568 1314 m 971 478 q 958 541 965 512 q 941 594 950 569 q 923 636 933 617 q 904 670 914 655 q 885 698 895 686 q 864 720 874 710 q 845 739 854 731 q 827 754 835 747 q 770 806 797 779 q 716 851 743 832 q 656 881 687 870 q 587 889 625 892 q 533 877 560 887 q 481 854 505 868 q 419 811 448 836 q 366 755 390 785 q 326 698 344 728 q 297 637 309 668 q 278 575 284 606 q 271 514 271 543 q 280 434 271 477 q 303 348 288 390 q 330 281 314 314 q 366 219 347 248 q 417 155 389 185 q 476 104 444 126 q 543 71 507 84 q 617 59 579 59 q 685 67 652 59 q 748 88 718 74 q 822 133 788 105 q 885 193 857 161 q 923 250 906 221 q 952 311 941 279 q 972 394 967 351 q 971 478 977 436 "},"I":{"x_min":-75.953125,"x_max":345.859375,"ha":362,"o":"m -75 900 q 18 898 -28 899 q 111 896 65 897 q 206 895 158 896 q 301 893 253 895 q 315 887 310 891 q 321 876 320 882 q 322 863 322 870 q 321 847 322 855 l 321 462 l 320 77 q 320 61 320 70 q 318 42 320 51 q 311 24 316 32 q 298 14 306 16 q 244 2 269 6 q 192 -2 219 -1 q 132 -4 165 -4 q 52 -4 99 -4 q 60 27 58 13 q 63 55 62 42 q 65 84 65 69 q 65 120 65 99 l 65 416 l 65 712 q 61 723 65 716 q 49 741 56 731 q 31 764 42 752 q 10 790 21 777 q -11 819 0 805 q -34 848 -23 834 q -56 875 -46 862 q -75 900 -67 888 m 325 1421 l 335 1350 l 345 1281 l 229 1268 l 112 1254 l 104 1323 l 97 1392 l 211 1406 l 325 1421 "},"G":{"x_min":42.859375,"x_max":1199,"ha":1259,"o":"m 1128 743 l 904 691 q 863 742 888 717 q 811 788 838 767 q 754 824 782 809 q 702 845 727 839 q 648 855 674 850 q 599 862 622 859 q 556 864 576 865 q 515 859 535 863 q 478 847 496 855 q 442 826 459 839 q 404 794 423 812 q 366 751 386 775 q 329 693 345 725 q 302 626 313 661 q 288 572 294 600 q 280 515 283 543 q 281 449 279 482 q 288 383 283 416 q 304 322 294 352 q 328 265 314 291 q 356 221 340 244 q 393 179 373 199 q 449 129 419 151 q 514 90 480 107 q 576 67 543 75 q 642 59 609 59 q 709 68 675 59 q 774 96 743 77 q 833 139 805 115 q 885 191 861 164 q 931 250 910 219 q 972 311 953 280 l 1199 354 q 1163 284 1181 320 q 1125 212 1144 248 q 1095 156 1110 184 q 1063 101 1079 128 q 1025 40 1045 70 q 984 -18 1005 9 q 939 -75 963 -47 q 892 -130 916 -104 q 842 -181 868 -155 q 789 -229 816 -206 q 694 -302 743 -268 q 646 -334 671 -318 q 598 -364 622 -349 q 531 -399 565 -382 q 463 -429 497 -416 q 451 -430 454 -434 q 450 -421 448 -427 q 455 -408 451 -415 q 459 -401 458 -402 q 522 -353 492 -378 q 580 -302 552 -328 q 627 -254 604 -279 q 671 -204 651 -229 q 718 -141 695 -173 q 760 -75 741 -109 q 791 -24 777 -50 q 816 28 805 1 q 815 38 819 35 q 804 44 811 42 q 792 46 798 46 q 782 46 785 46 q 731 31 758 39 q 678 16 705 23 q 620 2 649 8 q 562 -8 591 -2 q 504 -14 534 -12 q 444 -17 474 -17 q 387 -12 416 -16 q 333 0 359 -8 q 267 26 297 10 q 211 61 237 42 q 167 101 187 80 q 131 147 147 123 q 104 196 116 170 q 82 249 92 222 q 65 303 73 275 q 51 358 56 330 q 44 402 46 379 q 43 447 42 424 q 48 507 43 477 q 61 565 52 537 q 75 612 66 588 q 94 657 85 636 q 122 705 107 682 q 151 747 136 728 q 181 781 165 763 q 212 816 196 800 q 245 844 229 831 q 273 861 261 857 q 370 885 321 876 q 463 900 416 895 q 556 909 509 906 q 648 916 603 912 q 735 918 691 919 q 821 910 778 916 q 906 894 863 904 q 988 869 949 884 q 1032 848 1011 861 q 1070 817 1052 835 q 1102 781 1087 801 q 1128 743 1117 762 "},"z":{"x_min":28.484375,"x_max":1395.671875,"ha":1465,"o":"m 67 652 q 69 684 69 668 q 71 717 70 701 q 81 759 71 740 q 107 794 90 778 q 146 822 124 809 q 189 846 168 835 q 237 859 214 853 q 283 872 260 865 q 330 885 306 878 q 377 897 354 891 q 447 916 410 911 q 522 922 484 922 q 598 917 558 922 q 679 907 638 912 q 764 891 722 899 q 847 877 805 882 q 913 870 880 873 q 980 866 946 868 q 1032 868 1006 866 q 1086 872 1059 869 q 1151 882 1118 876 q 1217 897 1184 888 q 1226 895 1222 899 q 1233 887 1230 892 q 1238 878 1236 882 q 1236 873 1239 873 q 1187 858 1211 868 q 1140 836 1163 849 q 1097 807 1118 823 q 1057 774 1076 792 q 1019 734 1038 755 q 983 691 1000 713 q 942 636 961 664 q 906 581 923 607 q 866 520 885 550 q 827 461 847 489 q 775 389 802 424 q 714 324 747 355 q 651 269 686 295 q 575 219 617 244 q 504 183 542 200 q 423 147 466 165 q 415 144 419 147 q 410 137 412 141 q 410 130 408 134 q 420 123 412 126 q 497 117 458 120 q 576 109 537 113 q 655 104 615 107 q 733 100 694 101 q 811 97 771 99 q 891 96 851 96 q 953 96 922 96 q 1015 99 984 97 q 1047 113 1032 105 q 1076 130 1062 120 q 1105 151 1091 139 q 1129 176 1118 162 q 1147 201 1139 187 q 1159 230 1155 215 q 1166 264 1165 246 q 1166 302 1167 282 q 1169 311 1169 307 q 1169 320 1170 316 q 1169 329 1169 325 q 1171 339 1169 333 l 1380 370 q 1384 357 1383 363 q 1387 345 1386 351 q 1390 332 1388 339 q 1395 320 1392 326 q 1379 285 1390 302 q 1354 252 1368 268 q 1323 220 1341 236 q 1285 189 1306 204 q 1241 158 1265 173 q 1189 130 1216 143 q 1141 106 1166 118 q 1090 84 1116 94 q 1024 58 1057 70 q 957 36 991 46 q 861 11 910 21 q 764 -1 813 1 q 693 -6 729 -5 q 619 -6 656 -8 q 549 -4 584 -6 q 478 0 514 -2 q 409 2 443 0 q 344 2 375 4 q 274 12 309 9 q 206 14 240 14 q 130 12 168 14 q 55 6 92 10 q 42 21 48 13 q 28 35 35 28 q 86 55 56 44 q 143 77 115 66 q 222 109 183 92 q 299 143 261 126 q 381 188 341 165 q 455 240 420 211 q 521 299 491 267 q 576 370 552 332 q 613 429 595 400 q 646 485 630 458 q 686 551 667 519 q 725 611 706 583 q 763 665 744 640 q 804 716 782 691 q 838 754 820 736 q 876 790 855 773 q 763 790 815 789 q 688 793 724 790 q 617 801 652 796 q 546 813 581 805 q 472 830 511 820 q 418 832 442 834 q 377 823 394 830 q 340 801 355 816 q 316 766 325 786 q 304 729 309 750 q 297 686 299 709 l 67 652 "},"U":{"x_min":44.765625,"x_max":1280.390625,"ha":1344,"o":"m 512 903 q 476 845 495 873 q 438 792 457 817 q 402 737 420 764 q 367 683 383 710 q 337 628 351 656 q 314 572 324 600 q 299 511 305 542 q 292 446 292 480 q 297 378 292 410 q 309 316 301 345 q 328 257 317 284 q 354 206 340 230 q 396 151 373 176 q 446 108 419 127 q 514 74 477 88 q 594 56 552 61 q 649 67 621 61 q 706 85 678 74 q 762 107 735 94 q 816 136 790 120 q 872 171 845 153 q 925 210 900 189 q 974 251 950 230 q 1018 294 998 272 q 1030 311 1025 302 q 1036 329 1034 320 q 1038 350 1038 339 q 1036 377 1038 362 q 1033 461 1033 419 q 1032 545 1033 503 q 1028 629 1032 587 q 1018 713 1025 671 q 996 777 1011 748 q 950 824 980 805 q 894 845 927 838 q 816 851 861 851 q 820 893 819 873 q 878 895 850 895 q 937 896 907 896 q 994 897 965 897 q 1053 899 1024 897 q 1111 899 1082 899 q 1169 900 1140 900 q 1213 901 1190 901 q 1258 903 1236 901 q 1261 793 1260 847 q 1264 683 1262 739 q 1266 574 1265 629 q 1269 465 1268 519 q 1272 348 1270 406 q 1274 233 1273 290 q 1277 130 1276 181 q 1280 27 1279 78 l 1048 -14 q 1045 39 1047 12 q 1044 94 1044 66 q 1042 149 1043 122 q 1040 204 1041 176 q 984 172 1011 188 q 929 139 956 155 q 876 109 903 124 q 823 80 849 93 q 750 48 788 63 q 672 23 713 32 q 632 12 653 17 q 587 5 610 8 q 540 0 564 1 q 491 -1 516 -1 q 402 -14 443 -12 q 324 -10 360 -17 q 267 2 294 -6 q 218 25 241 12 q 175 57 195 39 q 139 96 155 75 q 109 144 123 119 q 85 196 96 169 q 73 236 78 215 q 63 278 67 257 q 55 332 58 305 q 52 385 52 359 q 54 429 52 406 q 61 474 56 451 q 71 518 65 496 q 84 562 77 541 q 101 609 90 585 q 120 656 111 633 q 137 689 128 672 q 155 721 146 706 q 166 745 162 736 q 172 760 170 755 q 174 769 173 766 q 173 773 174 771 q 147 802 160 788 q 119 828 134 816 q 86 850 104 840 q 48 863 69 859 q 46 879 47 872 q 44 893 44 887 q 99 895 71 893 q 155 900 127 897 q 212 909 184 904 q 267 919 240 914 q 280 911 273 915 q 292 903 287 907 q 402 903 348 903 q 512 903 457 903 "},"w":{"x_min":-44.765625,"x_max":2161.546875,"ha":2269,"o":"m 497 927 l 497 901 q 453 844 474 873 q 413 783 432 815 q 376 722 393 754 q 345 657 359 690 q 323 598 333 627 q 305 537 313 568 q 294 473 298 505 q 288 408 290 440 q 295 337 287 374 q 318 264 303 301 q 355 196 333 229 q 404 141 377 164 q 447 107 424 122 q 493 82 470 93 q 541 65 518 73 q 587 55 564 58 q 632 63 609 56 q 678 78 655 70 q 725 100 702 88 q 771 124 748 112 q 818 155 796 139 q 861 185 840 170 q 905 224 887 206 q 931 254 923 242 q 929 308 930 283 q 929 356 929 333 q 931 402 930 381 q 935 444 933 424 q 946 497 939 472 q 961 550 952 523 q 981 604 969 576 q 1009 665 994 633 q 1014 705 1017 683 q 999 751 1011 728 q 973 794 990 773 q 938 832 957 815 q 914 851 926 842 q 890 865 901 859 q 868 872 878 870 q 847 872 857 873 l 849 907 q 934 914 895 911 q 1007 918 973 916 q 1102 916 1059 918 q 1184 911 1144 914 q 1263 903 1223 907 q 1350 896 1303 899 q 1322 830 1338 863 q 1289 763 1306 797 q 1247 676 1269 720 q 1209 592 1226 633 q 1180 510 1192 550 q 1166 434 1169 470 q 1169 367 1165 402 q 1185 298 1174 332 q 1211 233 1196 265 q 1246 174 1227 202 q 1297 118 1269 143 q 1357 75 1325 92 q 1428 51 1391 58 q 1508 50 1466 44 q 1572 71 1542 55 q 1631 108 1603 86 q 1666 140 1649 123 q 1700 176 1684 157 q 1734 215 1718 195 q 1767 256 1751 236 q 1799 296 1783 275 q 1832 336 1816 317 q 1865 373 1848 355 q 1900 408 1882 391 l 1890 545 l 1882 649 l 1875 747 q 1845 799 1862 775 q 1805 840 1828 823 q 1752 869 1782 858 q 1685 884 1722 880 q 1679 887 1680 884 q 1677 894 1679 891 q 1675 901 1676 897 q 1669 907 1675 906 q 1785 918 1729 915 q 1897 923 1841 922 q 1953 925 1924 925 q 2008 926 1981 926 q 2065 927 2037 926 q 2122 927 2094 927 q 2121 843 2121 889 q 2124 745 2122 797 q 2126 686 2124 717 q 2130 625 2128 656 q 2135 575 2132 600 q 2141 523 2138 549 q 2149 462 2145 493 q 2153 400 2152 431 q 2158 337 2156 368 q 2160 272 2160 305 q 2161 210 2162 241 q 2159 147 2160 179 q 2154 87 2157 118 q 2147 28 2151 56 l 1920 -1 l 1920 134 l 1920 249 l 1894 254 q 1839 198 1867 225 q 1783 149 1812 172 q 1727 106 1756 126 q 1669 71 1698 86 q 1586 33 1627 48 q 1508 8 1546 17 q 1433 -2 1468 0 q 1367 -1 1398 -4 q 1317 -16 1342 -12 q 1264 -20 1291 -21 q 1192 -8 1228 -18 q 1121 17 1155 1 q 1076 43 1098 29 q 1036 73 1055 56 q 997 108 1014 89 q 968 145 980 127 q 927 116 950 131 q 876 88 904 101 q 821 61 850 74 q 759 37 792 48 q 708 21 735 28 q 651 9 680 14 q 592 2 622 4 q 530 0 562 0 q 480 -10 505 -6 q 429 -14 455 -13 q 344 -7 386 -14 q 264 17 302 0 q 219 41 241 27 q 179 73 198 55 q 145 105 161 88 q 118 142 130 122 q 95 180 105 160 q 77 222 85 200 q 63 263 69 242 q 54 306 58 284 q 47 413 46 356 q 51 456 48 435 q 56 497 54 477 q 68 542 62 520 q 81 584 74 564 q 96 627 88 606 q 115 667 105 648 q 131 701 123 684 q 147 733 139 717 q 155 754 155 741 q 147 781 154 766 q 117 811 132 796 q 82 838 101 826 q 50 860 67 850 q 13 877 32 870 q -13 887 0 882 q -42 895 -27 892 l -44 923 l 136 925 l 345 926 l 497 927 "},"F":{"x_min":-63.75,"x_max":1175.953125,"ha":1234,"o":"m -63 961 q -6 958 -35 957 q 52 961 21 958 q 112 965 82 963 q 170 965 142 967 q 246 955 210 965 q 310 920 282 945 q 329 900 321 912 q 345 873 337 888 q 359 843 352 858 q 371 816 366 828 q 448 838 412 827 q 519 859 484 849 q 611 885 565 872 q 710 911 657 899 q 754 918 728 916 q 808 919 781 919 q 861 916 835 919 q 906 911 887 914 q 960 897 934 906 q 1011 876 987 888 q 1057 851 1036 865 q 1095 821 1078 836 q 1152 756 1131 790 q 1175 690 1173 722 l 938 622 q 912 676 927 652 q 878 721 897 701 q 832 760 857 743 q 781 789 808 777 q 725 811 754 801 q 670 828 697 820 q 610 835 636 836 q 560 823 584 834 q 514 789 537 811 q 465 736 491 767 q 432 684 446 713 q 409 622 419 656 q 396 551 401 588 q 389 476 390 514 q 385 396 386 436 q 383 316 383 355 q 382 237 383 275 q 378 164 381 199 q 461 159 419 161 q 543 155 503 157 q 627 151 585 153 q 712 147 670 149 q 806 142 759 145 q 897 138 853 139 q 988 133 944 135 q 1075 130 1033 131 q 1089 126 1085 130 q 1095 115 1094 122 q 1092 101 1095 109 q 1083 85 1089 93 q 1070 68 1078 77 q 1055 52 1063 59 q 1039 39 1047 44 q 1026 31 1032 33 q 960 5 994 16 q 892 -12 927 -5 q 821 -23 857 -20 q 751 -23 786 -25 q 743 -20 744 -23 q 745 -14 743 -17 q 755 -5 748 -10 q 770 4 762 0 q 788 15 778 9 q 806 28 797 21 q 822 41 815 35 q 834 52 830 47 q 842 73 845 66 q 833 82 840 80 q 816 85 826 85 q 801 85 807 85 q 748 91 774 89 q 694 94 721 93 q 640 99 667 97 q 587 100 614 100 q 534 102 561 101 q 480 104 507 103 q 426 105 453 104 q 373 108 400 107 q 371 30 371 69 q 371 -47 371 -8 q 371 -126 371 -86 q 371 -204 371 -165 q 367 -355 371 -280 q 360 -436 364 -396 q 351 -516 356 -476 q 339 -564 347 -539 q 318 -610 330 -588 q 288 -651 306 -630 q 246 -687 271 -671 q 306 -694 276 -691 q 366 -697 336 -697 q 426 -697 397 -698 q 484 -694 455 -697 q 532 -685 508 -691 q 576 -671 556 -679 l 590 -698 q 537 -711 564 -705 q 484 -721 511 -717 q 413 -731 448 -727 q 341 -736 378 -735 q 285 -739 314 -737 q 227 -741 256 -740 q 153 -744 189 -743 q 80 -745 116 -745 q 7 -749 43 -747 q -63 -754 -28 -751 l -63 -727 q -36 -726 -50 -728 q -10 -718 -23 -724 q 15 -704 2 -713 q 39 -684 28 -695 q 61 -661 51 -674 q 78 -636 70 -649 q 92 -609 86 -622 q 99 -581 97 -595 q 107 -526 103 -554 q 113 -469 111 -497 q 118 -412 116 -440 q 122 -355 120 -383 q 124 -297 123 -326 q 126 -240 126 -268 q 126 -183 126 -211 q 126 -124 126 -154 q 126 -46 126 -86 q 128 32 127 -5 q 130 111 128 71 q 132 188 131 150 q 135 266 134 227 q 138 344 136 305 q 139 420 138 382 q 138 496 139 458 q 138 556 138 523 q 136 623 138 590 q 130 710 135 665 q 115 792 126 754 q 91 848 105 823 q 55 892 77 873 q 4 919 33 910 q -63 927 -24 929 l -63 961 "},"r":{"x_min":-46.109375,"x_max":1576.0625,"ha":1221,"o":"m -46 891 q 17 893 -14 892 q 85 896 50 895 q 139 900 112 899 q 192 903 166 901 q 250 905 222 904 q 303 906 279 906 q 351 906 329 907 q 389 904 373 906 q 448 910 417 907 q 511 915 480 914 q 585 919 547 918 q 657 919 622 920 q 727 915 693 919 q 793 904 760 911 q 859 887 827 897 q 920 862 891 877 q 950 844 935 854 q 978 821 965 834 q 1002 793 991 808 q 1021 760 1013 778 q 1032 724 1028 743 q 1034 683 1036 705 q 1029 639 1034 663 q 1011 591 1024 615 q 994 560 1005 575 q 971 534 984 546 q 944 512 958 522 q 912 492 929 501 q 875 474 895 482 q 835 457 855 465 q 804 445 820 451 q 774 434 789 439 q 796 415 785 424 q 816 397 807 406 q 843 373 830 386 q 870 348 857 360 q 916 304 893 326 q 961 259 939 282 q 994 223 977 241 q 1029 187 1011 206 q 1057 157 1043 172 q 1085 127 1071 142 q 1143 66 1113 96 q 1199 31 1169 46 q 1257 9 1228 17 q 1310 2 1285 2 q 1353 8 1336 1 q 1401 31 1378 18 q 1448 59 1425 44 q 1494 90 1471 74 q 1540 127 1517 107 q 1549 123 1544 124 q 1558 120 1554 122 q 1567 117 1562 119 q 1576 113 1572 115 q 1548 69 1565 89 q 1513 35 1532 50 q 1459 4 1489 16 q 1399 -13 1429 -6 q 1354 -22 1378 -18 q 1310 -28 1330 -25 q 1260 -31 1283 -29 q 1222 -35 1236 -32 q 1186 -47 1205 -42 q 1146 -55 1167 -52 q 1102 -56 1124 -56 q 1056 -54 1079 -56 q 1007 -44 1032 -51 q 961 -28 983 -37 q 930 -10 945 -20 q 904 8 915 -1 q 878 33 892 20 q 851 61 865 46 q 823 90 838 74 q 796 120 809 105 q 763 155 779 138 q 731 191 747 173 q 706 219 718 204 q 682 245 694 233 q 655 273 668 260 q 627 301 641 287 q 603 324 615 313 q 579 344 591 336 q 537 372 556 363 q 503 379 518 382 q 486 382 495 381 q 467 385 477 383 q 448 387 458 386 q 429 390 439 389 q 400 388 412 390 q 389 377 389 386 q 389 337 389 356 q 389 298 389 317 q 389 247 389 272 q 389 198 389 222 q 389 152 389 174 q 389 108 389 130 q 389 63 389 85 q 389 17 389 40 l 146 -35 q 146 44 146 4 q 145 124 146 84 q 144 205 145 165 q 143 284 143 245 q 141 370 142 328 q 141 455 141 413 q 141 531 141 493 q 141 606 141 569 q 131 642 136 623 q 120 680 126 661 q 102 730 112 705 q 80 775 92 755 q 55 812 69 796 q 27 840 42 828 q -6 861 10 854 q -43 869 -23 868 q -44 880 -43 874 q -46 891 -46 885 m 359 855 q 364 800 362 828 q 368 744 366 771 q 372 701 371 722 q 377 659 374 680 q 380 612 378 636 q 383 564 382 588 q 386 518 385 541 q 389 472 387 495 q 389 458 389 466 q 393 443 390 450 q 400 431 396 436 q 410 427 405 427 q 455 428 432 427 q 501 432 478 429 q 550 438 526 435 q 598 447 575 442 q 642 460 621 453 q 684 478 664 467 q 721 503 703 489 q 751 535 739 518 q 768 566 760 549 q 781 600 775 583 q 787 637 785 618 q 786 675 789 656 q 779 711 785 693 q 762 745 773 729 q 737 776 752 762 q 703 801 722 790 q 560 855 636 838 q 482 868 522 863 q 401 872 443 872 q 388 871 396 872 q 374 869 381 870 q 364 864 368 868 q 359 855 359 861 "},"x":{"x_min":-74.59375,"x_max":1517.75,"ha":1322,"o":"m 1222 918 q 1226 867 1228 893 q 1217 813 1224 840 q 1196 762 1209 788 q 1170 714 1184 736 q 1142 679 1159 697 q 1102 642 1124 661 q 1052 606 1079 625 q 995 572 1025 588 q 941 543 969 557 q 884 516 912 528 q 826 493 855 504 q 767 473 796 482 q 799 431 783 453 q 830 387 815 409 q 869 330 850 359 q 907 273 888 302 q 946 220 926 246 q 987 168 965 193 q 1033 115 1009 141 q 1085 66 1057 89 q 1119 41 1101 51 q 1159 25 1137 31 q 1217 18 1185 18 q 1289 25 1250 18 q 1342 43 1318 31 q 1388 71 1367 55 q 1432 105 1411 86 q 1474 141 1454 123 l 1517 119 q 1458 63 1493 86 q 1383 23 1424 39 q 1335 6 1360 13 q 1286 -6 1311 0 q 1236 -16 1261 -12 q 1189 -24 1212 -21 q 1156 -31 1174 -27 q 1118 -40 1139 -35 q 1076 -48 1098 -44 q 1032 -52 1055 -51 q 967 -50 1000 -55 q 901 -29 934 -46 q 850 3 876 -17 q 801 56 824 24 q 771 96 786 77 q 739 135 755 115 q 708 174 724 154 q 676 212 691 193 q 633 267 655 240 q 591 322 611 294 q 567 355 579 339 q 543 387 556 371 q 434 349 480 373 q 398 330 415 341 q 368 307 382 320 q 343 283 355 297 q 324 256 332 269 q 309 227 316 242 q 297 193 302 211 q 290 167 292 181 q 286 139 287 153 q 284 112 284 126 q 283 85 283 99 q 286 25 283 56 l 55 -21 q 56 20 58 0 q 55 62 55 40 q 54 97 54 80 q 55 132 54 115 q 62 168 56 150 q 77 202 67 185 q 101 236 86 219 q 132 268 115 253 q 189 309 158 290 q 254 347 221 329 q 310 372 282 360 q 367 396 339 385 q 423 416 396 406 q 476 434 450 425 q 481 437 477 435 q 490 440 485 439 q 499 444 495 442 q 507 447 504 446 q 500 459 503 455 q 495 467 497 463 q 462 508 478 488 q 429 549 446 528 q 387 601 409 575 q 344 652 366 627 q 302 698 324 675 q 256 743 280 721 q 212 779 236 762 q 166 813 189 797 q 136 828 150 823 q 108 836 122 834 q 80 839 94 839 q 52 838 66 839 q 7 832 31 836 q -44 826 -16 827 l -74 843 q -10 856 -42 850 q 52 868 21 862 q 126 882 89 874 q 199 896 162 889 q 248 905 223 904 q 299 901 273 906 q 348 887 324 897 q 397 863 373 877 q 463 819 431 845 q 524 766 495 794 q 579 710 553 739 q 627 655 604 682 q 681 586 657 618 q 721 531 705 554 q 789 556 758 541 q 846 591 820 571 q 895 632 873 610 q 934 679 918 655 q 967 732 953 705 q 987 785 980 759 q 998 842 996 815 q 995 889 1000 869 l 1222 918 "},"V":{"x_min":-28.484375,"x_max":1350.90625,"ha":1417,"o":"m 359 927 l 374 891 q 418 815 396 853 q 465 739 440 777 q 519 655 491 697 q 576 571 547 613 q 634 486 604 528 q 691 404 663 444 q 748 320 720 362 q 804 236 777 278 q 844 303 823 268 q 885 375 865 339 q 922 442 904 408 q 957 511 939 476 q 988 581 973 545 q 1017 655 1003 617 q 1033 710 1025 682 q 1048 769 1041 739 q 1045 834 1051 811 q 1022 870 1038 858 q 979 883 1007 881 q 910 881 952 885 l 910 906 l 1144 919 l 1344 930 l 1350 903 q 1332 893 1341 899 q 1312 878 1323 887 q 1293 861 1303 870 q 1273 843 1284 853 q 1241 809 1257 827 q 1208 770 1224 790 q 1174 729 1190 750 q 1142 686 1158 708 q 1109 641 1125 663 q 1078 599 1093 619 q 1039 541 1059 571 q 1000 482 1019 512 q 952 402 976 443 q 903 318 927 360 q 866 256 884 288 q 828 191 847 223 q 794 132 811 162 q 759 73 777 103 q 730 27 744 50 q 701 -18 716 4 l 617 1 q 602 39 611 17 q 581 89 594 61 q 562 133 573 109 q 538 183 550 157 q 515 227 527 204 q 491 275 503 250 q 463 322 477 298 q 436 373 450 347 q 408 418 423 394 q 381 465 394 442 q 351 511 366 488 q 321 556 336 534 q 287 604 305 580 q 253 651 269 629 q 215 698 234 675 q 179 741 196 721 q 128 792 154 769 q 78 834 103 816 q 23 869 50 855 q -28 891 -2 884 l -28 918 l 169 923 l 359 927 "},"Q":{"x_min":42.5,"x_max":1717.125,"ha":1289,"o":"m 482 895 q 549 912 514 906 q 625 920 585 919 q 683 920 653 922 q 743 914 713 918 q 820 896 782 907 q 895 869 858 885 q 951 838 923 855 q 1003 800 979 820 q 1050 752 1028 778 q 1090 697 1072 727 q 1113 654 1102 676 q 1132 607 1124 632 q 1150 539 1143 575 q 1158 465 1156 504 q 1156 418 1159 442 q 1147 371 1154 394 q 1130 327 1140 349 q 1109 283 1120 305 q 1080 235 1095 259 q 1048 188 1064 211 q 1021 153 1034 170 q 995 120 1007 136 q 952 75 975 96 q 904 36 930 54 q 838 -2 873 14 q 767 -33 802 -18 q 703 -59 736 -47 q 637 -84 670 -70 q 573 -109 604 -96 q 509 -139 541 -123 q 560 -153 535 -146 q 609 -166 584 -160 q 658 -179 633 -173 q 708 -192 683 -185 q 756 -205 732 -199 q 804 -218 779 -211 q 855 -232 830 -225 q 906 -245 880 -240 q 965 -260 935 -253 q 1022 -272 994 -267 q 1093 -281 1059 -278 q 1162 -284 1128 -284 q 1222 -282 1193 -284 q 1280 -273 1251 -279 q 1395 -237 1338 -261 q 1437 -212 1416 -225 q 1477 -185 1458 -199 q 1516 -160 1497 -173 q 1553 -134 1535 -147 q 1588 -106 1572 -120 q 1622 -75 1605 -92 q 1654 -44 1639 -61 q 1684 -8 1669 -27 q 1700 -14 1692 -12 q 1717 -20 1708 -17 q 1673 -82 1699 -52 q 1615 -138 1647 -111 q 1546 -189 1584 -165 q 1467 -236 1509 -214 q 1385 -273 1428 -256 q 1296 -303 1342 -290 q 1190 -331 1245 -320 q 1081 -348 1136 -343 q 1043 -354 1060 -351 q 1011 -362 1026 -358 q 981 -370 996 -366 q 948 -377 965 -374 q 910 -379 930 -378 q 863 -377 889 -379 q 802 -369 836 -375 q 727 -352 769 -363 q 653 -332 691 -344 q 575 -310 615 -321 q 495 -288 535 -299 q 415 -267 454 -276 q 330 -248 371 -256 q 254 -237 290 -240 q 206 -238 229 -236 q 168 -245 184 -240 q 165 -242 166 -244 q 162 -237 164 -240 q 158 -233 160 -236 q 155 -229 157 -231 q 231 -201 193 -215 q 307 -174 269 -187 q 380 -147 344 -161 q 450 -120 416 -134 q 521 -89 486 -105 q 587 -55 556 -73 q 641 -21 615 -39 q 690 14 667 -4 q 621 0 655 6 q 556 -9 588 -5 q 477 -15 515 -14 q 402 -13 439 -16 q 329 0 364 -9 q 263 23 294 8 q 211 52 236 35 q 166 93 187 70 q 128 141 146 115 q 96 200 111 168 q 77 248 86 222 q 62 303 69 275 q 52 349 56 325 q 46 400 48 374 q 43 501 40 453 q 51 559 46 531 q 65 611 56 587 q 86 665 73 640 q 115 713 99 690 q 148 754 130 735 q 185 788 166 773 q 246 829 214 811 q 310 859 278 847 q 401 885 356 877 q 482 895 446 893 m 473 854 q 426 821 448 840 q 385 778 404 801 q 348 729 364 755 q 320 675 332 702 q 302 633 310 655 q 290 591 294 611 q 278 524 280 557 q 278 465 275 492 q 290 398 282 434 q 310 326 298 363 q 340 253 322 290 q 383 184 358 217 q 421 145 400 164 q 466 109 442 126 q 536 75 497 89 q 622 55 575 61 q 681 52 651 52 q 747 55 712 51 q 779 88 763 70 q 812 128 796 107 q 836 164 824 145 q 858 204 847 183 q 881 257 870 229 q 900 316 892 284 q 914 380 908 345 q 922 453 919 415 q 916 522 925 486 q 888 594 907 558 q 845 664 870 630 q 786 728 819 698 q 718 783 755 759 q 640 826 680 808 q 557 850 599 842 q 473 854 515 858 "},"h":{"x_min":-48.828125,"x_max":1296.203125,"ha":1362,"o":"m 406 1455 q 408 1451 412 1454 q 396 1444 404 1448 q 379 1436 389 1440 q 364 1428 370 1432 q 364 1360 364 1394 q 364 1292 364 1326 q 364 1224 364 1258 q 364 1155 364 1190 q 364 1068 364 1112 q 364 980 364 1025 q 364 893 364 937 q 364 805 364 849 q 419 835 391 823 q 476 857 447 847 q 534 875 504 866 q 595 895 564 884 q 667 900 630 897 q 737 906 703 903 q 788 914 760 911 q 846 918 816 918 q 907 916 876 919 q 971 906 938 912 q 1027 891 999 900 q 1081 868 1055 881 q 1133 839 1108 855 q 1180 802 1158 823 q 1236 733 1211 773 q 1276 646 1261 694 q 1292 564 1287 609 q 1295 467 1298 519 q 1291 376 1295 420 q 1279 291 1287 332 q 1257 208 1270 248 q 1226 134 1243 168 q 1188 67 1209 99 q 1143 10 1167 36 q 1093 -35 1120 -13 q 1037 -77 1066 -58 q 954 -122 998 -103 q 865 -153 910 -141 q 773 -172 819 -165 q 680 -179 727 -179 q 745 -140 714 -162 q 804 -92 775 -118 q 858 -37 832 -66 q 906 21 884 -8 q 954 101 933 59 q 992 185 976 142 q 1015 261 1005 222 q 1030 337 1025 299 q 1036 411 1036 374 q 1034 485 1037 448 q 1026 544 1032 515 q 1011 602 1021 573 q 991 657 1003 630 q 964 710 979 684 q 920 756 941 736 q 878 792 899 777 q 809 836 842 821 q 748 854 777 851 q 674 842 710 857 q 600 800 638 827 q 557 755 579 778 q 516 709 535 732 q 478 658 496 684 q 442 604 459 632 q 409 549 425 577 q 378 491 393 520 q 349 427 363 459 q 322 362 336 396 q 320 280 321 321 q 317 199 318 240 q 314 136 316 168 q 311 71 313 104 q 302 40 307 56 q 291 9 297 24 q 231 4 261 6 q 170 0 200 1 q 110 -5 141 -2 q 50 -10 80 -8 q 52 59 51 23 q 56 131 54 96 q 61 204 59 168 q 65 278 63 241 q 71 371 67 324 q 78 466 75 419 q 84 561 81 514 q 89 653 88 609 q 94 747 92 701 q 99 839 97 793 q 102 940 100 889 q 104 1040 104 991 q 102 1165 104 1104 q 97 1285 100 1227 q 75 1342 90 1318 q 39 1388 59 1367 q -4 1428 18 1409 q -48 1470 -27 1448 q 58 1470 2 1470 q 170 1470 113 1471 q 286 1465 227 1468 q 406 1455 345 1462 "},"M":{"x_min":-78.671875,"x_max":2155.46875,"ha":2264,"o":"m 299 946 q 311 894 307 920 q 314 842 314 868 q 316 791 316 816 q 320 740 317 766 q 353 768 336 755 q 390 793 370 781 q 430 817 409 805 q 474 838 451 828 q 525 857 499 849 q 579 873 552 866 q 634 884 606 880 q 689 888 661 888 q 775 907 733 899 q 855 918 816 915 q 950 916 904 922 q 1038 889 996 911 q 1089 856 1064 876 q 1139 809 1114 836 q 1177 761 1158 788 q 1216 703 1197 735 q 1345 817 1280 775 q 1457 868 1399 853 q 1576 884 1515 884 q 1616 901 1589 892 q 1678 916 1643 910 q 1754 925 1713 923 q 1837 922 1795 927 q 1892 910 1864 918 q 1947 888 1920 901 q 1997 855 1973 874 q 2044 811 2022 836 q 2092 735 2071 778 q 2129 637 2114 693 q 2148 541 2141 594 q 2155 428 2155 489 q 2150 316 2156 370 q 2130 212 2144 261 q 2100 125 2119 166 q 2058 48 2081 84 q 2016 -8 2039 17 q 1966 -59 1993 -35 q 1894 -116 1932 -90 q 1812 -162 1855 -142 q 1743 -191 1779 -179 q 1669 -214 1707 -204 q 1661 -208 1665 -211 q 1653 -202 1657 -204 q 1704 -168 1680 -188 q 1750 -126 1729 -149 q 1789 -75 1771 -103 q 1822 -18 1808 -48 q 1862 77 1845 25 q 1889 181 1878 130 q 1904 291 1900 237 q 1908 397 1909 345 q 1904 476 1908 439 q 1894 545 1900 514 q 1878 601 1888 577 q 1856 638 1869 625 q 1812 713 1835 679 q 1765 774 1790 747 q 1703 828 1736 808 q 1638 851 1671 847 q 1567 842 1604 855 q 1491 798 1531 830 q 1429 739 1462 775 q 1363 655 1397 702 q 1329 587 1345 621 q 1303 519 1314 554 q 1279 441 1289 481 q 1262 360 1269 401 q 1250 273 1255 317 q 1242 184 1245 230 q 1240 139 1241 162 q 1238 94 1239 116 q 1236 48 1236 71 q 1236 1 1236 25 q 1117 -13 1177 -5 q 999 -29 1057 -21 q 994 25 996 -2 q 992 82 992 54 q 992 142 992 112 q 994 200 992 172 q 995 260 994 230 q 996 320 996 290 q 998 377 998 348 q 998 434 998 406 q 993 518 998 477 q 980 596 988 560 q 956 668 971 634 q 920 728 942 701 q 882 773 901 754 q 843 807 862 793 q 781 842 812 831 q 724 854 751 853 q 669 846 695 854 q 619 823 642 838 q 576 789 596 808 q 541 750 556 770 q 507 695 522 724 q 480 634 492 665 q 457 571 467 603 q 435 507 446 539 q 414 446 424 476 q 394 386 404 416 q 376 329 385 358 q 360 272 367 301 q 344 204 351 238 q 335 134 337 169 q 331 80 332 107 q 333 25 330 52 q 214 2 273 13 q 96 -21 155 -9 q 93 41 93 8 q 93 111 93 74 q 93 183 93 146 q 93 260 93 221 q 94 327 93 292 q 94 396 94 362 q 93 463 94 429 q 90 528 92 496 q 87 580 89 554 q 82 630 85 606 q 72 691 78 661 q 59 747 66 721 q 36 805 50 778 q 6 853 23 832 q -25 885 -6 872 q -66 904 -43 897 q -71 922 -69 914 q -78 938 -74 930 q -33 934 -55 935 q 48 936 6 934 q 132 939 90 938 q 217 944 174 942 q 299 946 259 945 "},"C":{"x_min":44.3125,"x_max":1128.46875,"ha":1184,"o":"m 1128 736 l 888 712 q 846 760 866 739 q 819 786 832 774 q 792 807 805 797 q 740 837 767 824 q 684 861 713 850 q 617 871 649 873 q 554 858 584 869 q 495 830 523 847 q 440 794 466 813 q 391 752 413 775 q 352 702 368 729 q 319 639 332 672 q 299 572 306 606 q 290 505 292 539 q 292 439 288 472 q 303 375 295 406 q 322 313 310 343 q 347 261 333 286 q 378 217 362 237 q 423 166 398 188 q 474 126 447 143 q 517 101 495 112 q 564 80 539 89 q 625 60 594 67 q 687 48 656 52 q 739 46 713 44 q 790 55 764 48 q 842 72 816 62 q 892 94 868 82 q 943 124 918 108 q 991 157 968 141 q 1032 186 1013 172 q 1068 214 1051 200 l 1105 193 q 1071 155 1089 173 q 1033 123 1053 138 q 994 94 1014 107 q 952 70 973 81 q 908 48 930 58 q 862 31 885 39 q 816 17 839 24 q 770 6 793 10 q 715 -2 743 1 q 659 -9 687 -6 q 601 -13 630 -12 q 543 -14 572 -14 q 471 -11 507 -14 q 401 -1 435 -8 q 320 18 359 5 q 272 39 295 27 q 229 67 249 51 q 198 95 212 81 q 169 126 183 109 q 139 163 153 143 q 113 204 126 183 q 91 246 101 225 q 74 288 81 268 q 62 327 67 307 q 52 367 56 347 q 46 419 48 393 q 44 473 43 446 q 48 519 44 496 q 56 564 51 542 q 71 607 62 587 q 92 646 80 627 q 118 686 104 665 q 147 725 132 706 q 180 762 164 744 q 214 797 196 781 q 248 827 230 813 q 284 851 267 840 q 329 873 306 863 q 375 887 352 882 q 431 896 404 892 q 488 901 459 900 q 545 906 516 904 q 603 908 575 907 q 670 912 637 910 q 735 916 703 915 q 800 918 767 919 q 865 911 832 916 q 942 888 904 903 q 1014 851 980 873 q 1045 829 1030 840 q 1074 804 1060 817 q 1102 771 1089 789 q 1128 736 1116 754 "},".":{"x_min":77.3125,"x_max":325.515625,"ha":342,"o":"m 305 147 l 314 77 l 325 6 l 208 -5 l 92 -17 l 84 50 l 77 118 l 191 132 l 305 147 "},"f":{"x_min":-63.75,"x_max":1175.953125,"ha":1234,"o":"m -63 961 q -6 958 -35 957 q 52 961 21 958 q 112 965 82 963 q 170 965 142 967 q 246 955 210 965 q 310 920 282 945 q 329 900 321 912 q 345 873 337 888 q 359 843 352 858 q 371 816 366 828 q 448 838 412 827 q 519 859 484 849 q 611 885 565 872 q 710 911 657 899 q 754 918 728 916 q 808 919 781 919 q 861 916 835 919 q 906 911 887 914 q 960 897 934 906 q 1011 876 987 888 q 1057 851 1036 865 q 1095 821 1078 836 q 1152 756 1131 790 q 1175 690 1173 722 l 938 622 q 912 676 927 652 q 878 721 897 701 q 832 760 857 743 q 781 789 808 777 q 725 811 754 801 q 670 828 697 820 q 610 835 636 836 q 560 823 584 834 q 514 789 537 811 q 465 736 491 767 q 432 684 446 713 q 409 622 419 656 q 396 551 401 588 q 389 476 390 514 q 385 396 386 436 q 383 316 383 355 q 382 237 383 275 q 378 164 381 199 q 461 159 419 161 q 543 155 503 157 q 627 151 585 153 q 712 147 670 149 q 806 142 759 145 q 897 138 853 139 q 988 133 944 135 q 1075 130 1033 131 q 1089 126 1085 130 q 1095 115 1094 122 q 1092 101 1095 109 q 1083 85 1089 93 q 1070 68 1078 77 q 1055 52 1063 59 q 1039 39 1047 44 q 1026 31 1032 33 q 960 5 994 16 q 892 -12 927 -5 q 821 -23 857 -20 q 751 -23 786 -25 q 743 -20 744 -23 q 745 -14 743 -17 q 755 -5 748 -10 q 770 4 762 0 q 788 15 778 9 q 806 28 797 21 q 822 41 815 35 q 834 52 830 47 q 842 73 845 66 q 833 82 840 80 q 816 85 826 85 q 801 85 807 85 q 748 91 774 89 q 694 94 721 93 q 640 99 667 97 q 587 100 614 100 q 534 102 561 101 q 480 104 507 103 q 426 105 453 104 q 373 108 400 107 q 371 30 371 69 q 371 -47 371 -8 q 371 -126 371 -86 q 371 -204 371 -165 q 367 -355 371 -280 q 360 -436 364 -396 q 351 -516 356 -476 q 339 -564 347 -539 q 318 -610 330 -588 q 288 -651 306 -630 q 246 -687 271 -671 q 306 -694 276 -691 q 366 -697 336 -697 q 426 -697 397 -698 q 484 -694 455 -697 q 532 -685 508 -691 q 576 -671 556 -679 l 590 -698 q 537 -711 564 -705 q 484 -721 511 -717 q 413 -731 448 -727 q 341 -736 378 -735 q 285 -739 314 -737 q 227 -741 256 -740 q 153 -744 189 -743 q 80 -745 116 -745 q 7 -749 43 -747 q -63 -754 -28 -751 l -63 -727 q -36 -726 -50 -728 q -10 -718 -23 -724 q 15 -704 2 -713 q 39 -684 28 -695 q 61 -661 51 -674 q 78 -636 70 -649 q 92 -609 86 -622 q 99 -581 97 -595 q 107 -526 103 -554 q 113 -469 111 -497 q 118 -412 116 -440 q 122 -355 120 -383 q 124 -297 123 -326 q 126 -240 126 -268 q 126 -183 126 -211 q 126 -124 126 -154 q 126 -46 126 -86 q 128 32 127 -5 q 130 111 128 71 q 132 188 131 150 q 135 266 134 227 q 138 344 136 305 q 139 420 138 382 q 138 496 139 458 q 138 556 138 523 q 136 623 138 590 q 130 710 135 665 q 115 792 126 754 q 91 848 105 823 q 55 892 77 873 q 4 919 33 910 q -63 927 -24 929 l -63 961 "},"L":{"x_min":80.03125,"x_max":953.953125,"ha":1002,"o":"m 598 1372 q 608 1324 604 1345 q 611 1287 611 1303 q 609 1261 611 1273 q 603 1238 607 1249 q 594 1216 599 1227 q 581 1193 588 1205 q 537 1115 557 1151 q 499 1048 516 1079 q 466 988 481 1015 q 439 937 451 960 q 415 887 425 910 q 394 843 404 863 q 378 805 385 823 q 366 770 371 788 q 354 738 359 754 q 345 707 349 722 q 338 675 341 691 q 330 641 335 659 q 326 610 328 629 q 323 566 324 591 q 323 512 322 541 q 326 450 324 482 q 335 371 329 412 q 351 291 341 330 q 377 203 360 245 q 415 128 393 161 q 465 77 436 97 q 528 58 493 58 q 580 58 556 56 q 627 63 604 59 q 686 79 657 69 q 744 104 716 89 q 791 132 767 116 q 840 168 815 149 q 882 202 861 184 q 927 241 904 221 q 934 242 929 244 q 944 238 939 241 q 952 232 949 236 q 953 226 954 229 q 899 165 927 192 q 838 118 870 138 q 772 80 807 96 q 702 51 737 63 q 630 29 667 39 q 556 13 592 20 q 498 4 527 8 q 440 -4 469 0 q 400 -9 420 -6 q 360 -13 381 -12 q 320 -14 340 -14 q 282 -10 301 -14 q 244 -2 263 -8 q 209 16 226 4 q 177 45 192 28 q 149 85 162 62 q 130 127 139 104 q 113 177 120 150 q 99 238 105 204 q 89 310 93 271 q 84 369 86 340 q 81 425 82 398 q 80 491 80 459 q 82 553 80 523 q 86 603 84 579 q 93 651 89 627 q 102 695 97 674 q 113 737 107 717 q 132 794 122 767 q 157 849 143 821 q 185 903 170 876 q 217 957 200 930 q 242 998 229 977 q 268 1040 254 1018 q 290 1074 279 1056 q 314 1109 302 1091 q 326 1139 322 1121 q 329 1175 330 1156 q 321 1215 328 1196 q 301 1254 314 1235 q 270 1288 288 1272 q 229 1315 252 1304 q 198 1327 214 1322 q 162 1334 181 1333 q 158 1340 160 1336 q 157 1348 157 1344 q 158 1357 157 1353 q 162 1361 160 1361 q 273 1368 217 1365 q 385 1372 329 1371 q 494 1373 440 1373 q 598 1372 547 1373 "},"i":{"x_min":-75.953125,"x_max":345.859375,"ha":362,"o":"m -75 900 q 18 898 -28 899 q 111 896 65 897 q 206 895 158 896 q 301 893 253 895 q 315 887 310 891 q 321 876 320 882 q 322 863 322 870 q 321 847 322 855 l 321 462 l 320 77 q 320 61 320 70 q 318 42 320 51 q 311 24 316 32 q 298 14 306 16 q 244 2 269 6 q 192 -2 219 -1 q 132 -4 165 -4 q 52 -4 99 -4 q 60 27 58 13 q 63 55 62 42 q 65 84 65 69 q 65 120 65 99 l 65 416 l 65 712 q 61 723 65 716 q 49 741 56 731 q 31 764 42 752 q 10 790 21 777 q -11 819 0 805 q -34 848 -23 834 q -56 875 -46 862 q -75 900 -67 888 m 325 1421 l 335 1350 l 345 1281 l 229 1268 l 112 1254 l 104 1323 l 97 1392 l 211 1406 l 325 1421 "},"A":{"x_min":42.859375,"x_max":1390.25,"ha":1289,"o":"m 69 769 q 85 791 70 779 q 123 815 100 802 q 164 833 142 824 q 212 850 187 842 q 272 868 241 859 q 333 884 303 877 q 391 894 363 889 q 444 899 420 899 q 522 896 486 901 q 585 880 557 891 q 640 853 615 869 q 684 817 664 838 q 724 777 706 798 q 759 731 741 755 q 792 683 775 708 q 824 636 808 659 q 864 579 845 609 q 903 520 884 550 q 941 460 922 491 q 980 400 961 429 q 1013 346 996 373 q 1048 294 1030 320 q 1095 227 1071 260 q 1144 164 1120 193 q 1192 120 1166 138 q 1250 93 1219 101 q 1317 84 1281 84 q 1390 96 1352 85 q 1346 61 1373 74 q 1285 40 1318 47 q 1218 27 1253 32 q 1154 16 1184 21 q 1102 10 1129 10 q 1049 17 1075 10 q 999 36 1024 23 q 954 70 975 50 q 921 107 938 88 q 889 146 904 126 q 857 187 873 166 q 824 227 840 207 q 794 208 809 218 q 763 191 778 199 q 723 169 743 180 q 684 149 703 158 q 613 118 649 132 q 539 93 577 104 q 466 71 504 84 q 389 46 428 58 q 309 22 349 33 q 230 4 269 10 q 186 0 207 0 q 146 4 165 0 q 113 13 128 6 q 86 29 99 20 q 51 74 62 48 q 43 128 40 100 q 49 158 44 143 q 61 185 54 172 q 84 221 70 203 q 112 253 97 238 q 138 277 124 265 q 165 298 151 288 q 202 325 183 313 q 240 348 221 337 q 276 370 256 359 q 318 396 297 382 q 354 418 336 406 q 390 443 373 429 q 438 478 415 459 q 484 519 462 497 q 518 556 501 537 q 550 595 535 575 q 556 607 554 600 q 556 620 557 614 q 554 633 556 626 q 547 644 552 640 q 526 677 537 661 q 505 705 515 693 q 465 751 484 733 q 428 779 446 769 q 402 792 416 788 q 375 801 389 797 q 345 807 360 805 q 311 812 329 809 q 260 811 290 816 q 198 798 230 807 q 164 790 181 794 q 131 782 147 786 q 99 775 115 778 q 69 769 84 771 m 649 496 q 600 464 625 480 q 549 434 575 448 q 507 409 528 421 q 463 385 485 397 q 413 351 438 368 q 364 316 387 335 q 330 284 347 301 q 299 250 314 268 q 275 211 283 230 q 265 176 267 192 q 269 136 263 154 q 290 105 276 118 q 318 86 302 93 q 354 77 335 78 q 393 77 373 74 q 432 88 413 80 q 478 109 455 99 q 524 132 501 120 q 568 158 546 145 q 611 185 591 170 q 659 221 636 202 q 705 264 683 241 q 734 296 720 279 q 762 332 748 313 l 705 415 l 649 496 "},"n":{"x_min":-88.15625,"x_max":1225.078125,"ha":1287,"o":"m -88 887 l -81 907 q -35 910 -59 908 q 14 913 -10 911 q 67 917 40 915 q 122 922 94 919 q 198 927 161 925 q 264 931 234 930 q 315 931 294 931 q 344 927 336 931 q 344 895 345 911 q 341 865 343 880 q 342 832 340 849 q 352 794 344 815 q 396 813 375 804 q 435 830 416 823 q 471 844 454 838 q 504 854 488 850 q 549 867 527 861 q 595 877 572 873 q 631 884 613 881 q 670 889 649 887 q 752 910 713 903 q 826 920 790 918 q 892 921 861 923 q 952 914 923 919 q 1010 895 983 907 q 1060 869 1037 884 q 1103 834 1083 853 q 1137 794 1123 815 q 1177 726 1161 762 q 1204 651 1193 690 q 1221 563 1216 607 q 1224 477 1226 519 q 1220 406 1224 442 q 1207 335 1215 370 q 1180 255 1196 294 q 1142 180 1163 217 q 1099 117 1123 147 q 1048 58 1075 86 q 1009 21 1030 39 q 965 -13 988 2 q 918 -45 942 -29 q 866 -75 893 -61 q 824 -96 846 -86 q 781 -116 802 -107 q 720 -139 751 -128 q 656 -157 689 -149 q 695 -135 676 -147 q 732 -109 714 -123 q 767 -80 750 -96 q 800 -47 783 -65 q 823 -20 812 -35 q 846 8 835 -5 q 867 38 857 23 q 887 70 877 54 q 910 117 899 93 q 930 165 922 141 q 948 215 939 189 q 961 267 956 241 q 973 349 969 307 q 975 432 976 390 q 968 506 973 467 q 953 583 963 545 q 935 640 946 611 q 911 694 925 668 q 871 751 893 724 q 820 797 849 778 q 745 838 783 823 q 668 851 706 853 q 590 832 629 851 q 512 771 552 813 q 466 716 489 748 q 420 642 443 683 q 389 581 405 614 q 358 511 374 549 q 356 501 358 509 q 354 480 355 493 q 354 451 354 467 q 352 416 354 435 q 352 349 352 385 q 352 273 352 313 q 352 208 352 241 q 352 143 352 174 q 352 82 352 111 q 352 27 352 52 l 112 -36 q 111 4 112 -16 q 111 46 111 24 q 110 88 111 67 q 109 131 109 109 q 107 179 108 154 q 107 226 107 203 q 105 274 107 250 q 104 322 104 298 q 102 361 103 341 q 100 401 101 381 q 97 451 99 425 q 94 501 96 477 q 91 547 93 524 q 86 591 89 569 q 82 636 85 614 q 78 680 80 657 q 69 713 75 694 q 51 751 62 732 q 36 776 44 763 q 18 800 28 789 q -1 826 9 813 q -27 849 -12 838 q -55 869 -40 859 q -88 887 -70 878 "},"O":{"x_min":44.21875,"x_max":1261.84375,"ha":1325,"o":"m 537 906 q 572 916 554 911 q 607 925 590 922 q 653 933 630 930 q 699 937 676 937 q 740 938 720 938 q 781 935 760 938 q 821 931 801 934 q 861 923 842 927 q 938 901 900 915 q 1013 870 976 888 q 1081 830 1048 853 q 1140 782 1113 808 q 1184 734 1165 760 q 1217 678 1203 708 q 1239 624 1230 652 q 1253 566 1247 596 q 1260 513 1257 541 q 1261 457 1262 485 q 1256 387 1261 421 q 1242 320 1251 352 q 1210 251 1232 284 q 1154 188 1188 218 q 1089 139 1125 162 q 1013 96 1053 116 q 975 77 995 86 q 935 61 956 69 q 882 40 910 50 q 828 24 855 31 q 783 12 807 17 q 737 1 760 6 q 688 -7 713 -2 q 638 -14 663 -12 q 583 -30 610 -25 q 528 -35 557 -35 q 534 -25 531 -29 q 539 -14 537 -20 q 478 -14 507 -14 q 423 -10 448 -13 q 376 -4 398 -8 q 335 6 354 0 q 291 23 311 13 q 252 46 271 33 q 221 66 237 55 q 191 89 206 77 q 143 134 165 109 q 105 188 122 160 q 80 241 90 214 q 62 297 69 268 q 50 355 55 325 q 44 415 46 385 q 45 482 43 448 q 52 545 47 515 q 61 582 56 564 q 73 618 66 600 q 86 652 78 636 q 104 683 94 668 q 126 717 113 701 q 151 748 138 733 q 181 777 165 763 q 212 802 196 792 q 247 826 229 815 q 284 847 265 838 q 324 865 303 857 q 367 878 345 873 q 407 889 386 885 q 448 897 428 893 q 537 906 492 904 m 752 834 q 685 856 718 849 q 621 866 652 863 q 565 868 591 869 q 522 863 539 866 q 487 851 507 861 q 448 826 467 840 q 411 792 429 811 q 378 755 393 774 q 336 684 354 721 q 307 611 318 648 q 291 516 294 564 q 295 424 288 469 q 313 350 301 386 q 341 282 325 314 q 386 211 360 244 q 442 151 412 179 q 525 94 481 116 q 611 62 569 73 q 693 53 655 52 q 762 65 732 54 q 777 75 770 73 q 789 78 783 78 q 800 77 794 78 q 811 78 805 75 q 855 101 834 88 q 896 130 877 113 q 930 164 914 146 q 958 203 946 183 q 992 277 979 238 q 1011 358 1006 316 q 1015 454 1018 405 q 998 550 1011 503 q 958 647 984 600 q 895 733 933 694 q 830 789 866 763 q 752 834 794 815 "}," ":{"x_min":0,"x_max":0,"ha":1289},"X":{"x_min":-74.59375,"x_max":1517.75,"ha":1322,"o":"m 1222 918 q 1226 867 1228 893 q 1217 813 1224 840 q 1196 762 1209 788 q 1170 714 1184 736 q 1142 679 1159 697 q 1102 642 1124 661 q 1052 606 1079 625 q 995 572 1025 588 q 941 543 969 557 q 884 516 912 528 q 826 493 855 504 q 767 473 796 482 q 799 431 783 453 q 830 387 815 409 q 869 330 850 359 q 907 273 888 302 q 946 220 926 246 q 987 168 965 193 q 1033 115 1009 141 q 1085 66 1057 89 q 1119 41 1101 51 q 1159 25 1137 31 q 1217 18 1185 18 q 1289 25 1250 18 q 1342 43 1318 31 q 1388 71 1367 55 q 1432 105 1411 86 q 1474 141 1454 123 l 1517 119 q 1458 63 1493 86 q 1383 23 1424 39 q 1335 6 1360 13 q 1286 -6 1311 0 q 1236 -16 1261 -12 q 1189 -24 1212 -21 q 1156 -31 1174 -27 q 1118 -40 1139 -35 q 1076 -48 1098 -44 q 1032 -52 1055 -51 q 967 -50 1000 -55 q 901 -29 934 -46 q 850 3 876 -17 q 801 56 824 24 q 771 96 786 77 q 739 135 755 115 q 708 174 724 154 q 676 212 691 193 q 633 267 655 240 q 591 322 611 294 q 567 355 579 339 q 543 387 556 371 q 434 349 480 373 q 398 330 415 341 q 368 307 382 320 q 343 283 355 297 q 324 256 332 269 q 309 227 316 242 q 297 193 302 211 q 290 167 292 181 q 286 139 287 153 q 284 112 284 126 q 283 85 283 99 q 286 25 283 56 l 55 -21 q 56 20 58 0 q 55 62 55 40 q 54 97 54 80 q 55 132 54 115 q 62 168 56 150 q 77 202 67 185 q 101 236 86 219 q 132 268 115 253 q 189 309 158 290 q 254 347 221 329 q 310 372 282 360 q 367 396 339 385 q 423 416 396 406 q 476 434 450 425 q 481 437 477 435 q 490 440 485 439 q 499 444 495 442 q 507 447 504 446 q 500 459 503 455 q 495 467 497 463 q 462 508 478 488 q 429 549 446 528 q 387 601 409 575 q 344 652 366 627 q 302 698 324 675 q 256 743 280 721 q 212 779 236 762 q 166 813 189 797 q 136 828 150 823 q 108 836 122 834 q 80 839 94 839 q 52 838 66 839 q 7 832 31 836 q -44 826 -16 827 l -74 843 q -10 856 -42 850 q 52 868 21 862 q 126 882 89 874 q 199 896 162 889 q 248 905 223 904 q 299 901 273 906 q 348 887 324 897 q 397 863 373 877 q 463 819 431 845 q 524 766 495 794 q 579 710 553 739 q 627 655 604 682 q 681 586 657 618 q 721 531 705 554 q 789 556 758 541 q 846 591 820 571 q 895 632 873 610 q 934 679 918 655 q 967 732 953 705 q 987 785 980 759 q 998 842 996 815 q 995 889 1000 869 l 1222 918 "},"P":{"x_min":-158.6875,"x_max":1188.15625,"ha":1246,"o":"m 290 816 q 334 847 311 835 q 379 865 356 858 q 415 873 397 870 q 451 878 434 876 q 487 882 469 880 q 523 887 505 884 q 585 897 554 891 q 646 910 615 904 q 707 918 676 915 q 769 919 737 922 q 856 904 815 914 q 934 877 897 893 q 979 856 957 868 q 1019 831 1000 845 q 1055 802 1038 817 q 1087 771 1072 788 q 1143 695 1120 736 q 1166 642 1156 670 q 1181 587 1175 615 q 1186 543 1185 565 q 1188 499 1188 522 q 1183 440 1186 469 q 1175 386 1180 412 q 1146 278 1166 326 q 1127 238 1137 257 q 1105 202 1117 219 q 1078 168 1093 184 q 1049 139 1064 153 q 1010 109 1032 123 q 965 84 988 96 q 907 59 938 70 q 840 39 876 48 q 783 27 813 32 q 720 17 752 21 q 659 12 690 14 q 594 8 627 9 q 566 2 581 5 q 536 -3 552 0 q 503 -10 520 -6 q 469 -14 486 -13 q 434 -16 451 -16 q 398 -12 416 -16 q 364 -1 381 -8 q 330 18 347 5 l 330 -103 l 330 -238 l 330 -363 l 330 -497 q 326 -547 329 -520 q 318 -599 324 -575 q 304 -644 313 -623 q 282 -674 295 -664 q 328 -680 305 -678 q 374 -684 351 -683 q 413 -686 394 -686 q 451 -684 432 -686 q 501 -678 477 -683 q 550 -665 526 -674 q 590 -646 571 -657 q 629 -621 610 -636 l 656 -636 q 615 -658 634 -648 q 576 -678 595 -668 q 524 -702 550 -691 q 466 -721 497 -713 q 412 -732 440 -728 q 349 -739 383 -736 q 296 -740 324 -740 q 236 -737 268 -740 q 214 -742 226 -741 q 187 -743 202 -743 q 156 -742 173 -743 q 119 -744 139 -741 q 72 -738 93 -739 q 32 -740 51 -737 q 8 -745 20 -743 q -16 -750 -4 -748 q -41 -754 -28 -752 q -69 -754 -54 -755 l -58 -733 q -17 -722 -35 -727 q 12 -712 0 -717 q 34 -699 24 -706 q 51 -680 44 -693 q 65 -636 59 -664 q 74 -561 70 -609 q 73 -419 74 -496 q 71 -259 73 -343 q 70 -160 71 -210 q 67 -59 69 -109 q 66 35 67 -12 q 62 128 65 82 q 57 298 61 215 q 51 453 54 381 q 46 563 48 512 q 41 652 43 614 q 37 714 39 690 q 32 744 35 737 q 14 811 24 785 q -5 851 5 836 q -28 872 -14 865 q -60 884 -42 880 q -103 889 -78 888 q -158 893 -127 891 q -42 918 -100 911 q 74 927 14 926 q 130 934 105 934 q 173 931 154 934 q 206 919 192 927 q 231 901 221 911 q 262 862 249 884 q 290 816 275 840 m 566 850 q 511 825 538 843 q 459 779 484 807 q 413 720 435 754 q 374 649 391 687 q 343 573 356 613 q 322 495 330 534 q 313 419 316 457 q 317 349 311 381 q 334 289 321 318 q 364 233 347 260 q 407 180 383 204 q 457 135 431 155 q 502 104 478 118 q 549 80 526 90 q 619 57 584 65 q 684 52 653 50 q 745 66 717 55 q 794 92 773 77 q 847 141 824 112 q 884 204 869 170 q 910 271 900 236 q 927 341 920 306 q 938 405 934 374 q 945 465 942 436 q 937 547 948 507 q 907 625 927 588 q 859 694 887 661 q 800 752 831 727 q 743 794 773 775 q 686 826 714 813 q 619 849 651 843 q 566 850 587 855 "},"m":{"x_min":-78.671875,"x_max":2155.46875,"ha":2264,"o":"m 299 946 q 311 894 307 920 q 314 842 314 868 q 316 791 316 816 q 320 740 317 766 q 353 768 336 755 q 390 793 370 781 q 430 817 409 805 q 474 838 451 828 q 525 857 499 849 q 579 873 552 866 q 634 884 606 880 q 689 888 661 888 q 775 907 733 899 q 855 918 816 915 q 950 916 904 922 q 1038 889 996 911 q 1089 856 1064 876 q 1139 809 1114 836 q 1177 761 1158 788 q 1216 703 1197 735 q 1345 817 1280 775 q 1457 868 1399 853 q 1576 884 1515 884 q 1616 901 1589 892 q 1678 916 1643 910 q 1754 925 1713 923 q 1837 922 1795 927 q 1892 910 1864 918 q 1947 888 1920 901 q 1997 855 1973 874 q 2044 811 2022 836 q 2092 735 2071 778 q 2129 637 2114 693 q 2148 541 2141 594 q 2155 428 2155 489 q 2150 316 2156 370 q 2130 212 2144 261 q 2100 125 2119 166 q 2058 48 2081 84 q 2016 -8 2039 17 q 1966 -59 1993 -35 q 1894 -116 1932 -90 q 1812 -162 1855 -142 q 1743 -191 1779 -179 q 1669 -214 1707 -204 q 1661 -208 1665 -211 q 1653 -202 1657 -204 q 1704 -168 1680 -188 q 1750 -126 1729 -149 q 1789 -75 1771 -103 q 1822 -18 1808 -48 q 1862 77 1845 25 q 1889 181 1878 130 q 1904 291 1900 237 q 1908 397 1909 345 q 1904 476 1908 439 q 1894 545 1900 514 q 1878 601 1888 577 q 1856 638 1869 625 q 1812 713 1835 679 q 1765 774 1790 747 q 1703 828 1736 808 q 1638 851 1671 847 q 1567 842 1604 855 q 1491 798 1531 830 q 1429 739 1462 775 q 1363 655 1397 702 q 1329 587 1345 621 q 1303 519 1314 554 q 1279 441 1289 481 q 1262 360 1269 401 q 1250 273 1255 317 q 1242 184 1245 230 q 1240 139 1241 162 q 1238 94 1239 116 q 1236 48 1236 71 q 1236 1 1236 25 q 1117 -13 1177 -5 q 999 -29 1057 -21 q 994 25 996 -2 q 992 82 992 54 q 992 142 992 112 q 994 200 992 172 q 995 260 994 230 q 996 320 996 290 q 998 377 998 348 q 998 434 998 406 q 993 518 998 477 q 980 596 988 560 q 956 668 971 634 q 920 728 942 701 q 882 773 901 754 q 843 807 862 793 q 781 842 812 831 q 724 854 751 853 q 669 846 695 854 q 619 823 642 838 q 576 789 596 808 q 541 750 556 770 q 507 695 522 724 q 480 634 492 665 q 457 571 467 603 q 435 507 446 539 q 414 446 424 476 q 394 386 404 416 q 376 329 385 358 q 360 272 367 301 q 344 204 351 238 q 335 134 337 169 q 331 80 332 107 q 333 25 330 52 q 214 2 273 13 q 96 -21 155 -9 q 93 41 93 8 q 93 111 93 74 q 93 183 93 146 q 93 260 93 221 q 94 327 93 292 q 94 396 94 362 q 93 463 94 429 q 90 528 92 496 q 87 580 89 554 q 82 630 85 606 q 72 691 78 661 q 59 747 66 721 q 36 805 50 778 q 6 853 23 832 q -25 885 -6 872 q -66 904 -43 897 q -71 922 -69 914 q -78 938 -74 930 q -33 934 -55 935 q 48 936 6 934 q 132 939 90 938 q 217 944 174 942 q 299 946 259 945 "},"l":{"x_min":80.03125,"x_max":953.953125,"ha":1002,"o":"m 598 1372 q 608 1324 604 1345 q 611 1287 611 1303 q 609 1261 611 1273 q 603 1238 607 1249 q 594 1216 599 1227 q 581 1193 588 1205 q 537 1115 557 1151 q 499 1048 516 1079 q 466 988 481 1015 q 439 937 451 960 q 415 887 425 910 q 394 843 404 863 q 378 805 385 823 q 366 770 371 788 q 354 738 359 754 q 345 707 349 722 q 338 675 341 691 q 330 641 335 659 q 326 610 328 629 q 323 566 324 591 q 323 512 322 541 q 326 450 324 482 q 335 371 329 412 q 351 291 341 330 q 377 203 360 245 q 415 128 393 161 q 465 77 436 97 q 528 58 493 58 q 580 58 556 56 q 627 63 604 59 q 686 79 657 69 q 744 104 716 89 q 791 132 767 116 q 840 168 815 149 q 882 202 861 184 q 927 241 904 221 q 934 242 929 244 q 944 238 939 241 q 952 232 949 236 q 953 226 954 229 q 899 165 927 192 q 838 118 870 138 q 772 80 807 96 q 702 51 737 63 q 630 29 667 39 q 556 13 592 20 q 498 4 527 8 q 440 -4 469 0 q 400 -9 420 -6 q 360 -13 381 -12 q 320 -14 340 -14 q 282 -10 301 -14 q 244 -2 263 -8 q 209 16 226 4 q 177 45 192 28 q 149 85 162 62 q 130 127 139 104 q 113 177 120 150 q 99 238 105 204 q 89 310 93 271 q 84 369 86 340 q 81 425 82 398 q 80 491 80 459 q 82 553 80 523 q 86 603 84 579 q 93 651 89 627 q 102 695 97 674 q 113 737 107 717 q 132 794 122 767 q 157 849 143 821 q 185 903 170 876 q 217 957 200 930 q 242 998 229 977 q 268 1040 254 1018 q 290 1074 279 1056 q 314 1109 302 1091 q 326 1139 322 1121 q 329 1175 330 1156 q 321 1215 328 1196 q 301 1254 314 1235 q 270 1288 288 1272 q 229 1315 252 1304 q 198 1327 214 1322 q 162 1334 181 1333 q 158 1340 160 1336 q 157 1348 157 1344 q 158 1357 157 1353 q 162 1361 160 1361 q 273 1368 217 1365 q 385 1372 329 1371 q 494 1373 440 1373 q 598 1372 547 1373 "},"p":{"x_min":-158.6875,"x_max":1188.15625,"ha":1246,"o":"m 290 816 q 334 847 311 835 q 379 865 356 858 q 415 873 397 870 q 451 878 434 876 q 487 882 469 880 q 523 887 505 884 q 585 897 554 891 q 646 910 615 904 q 707 918 676 915 q 769 919 737 922 q 856 904 815 914 q 934 877 897 893 q 979 856 957 868 q 1019 831 1000 845 q 1055 802 1038 817 q 1087 771 1072 788 q 1143 695 1120 736 q 1166 642 1156 670 q 1181 587 1175 615 q 1186 543 1185 565 q 1188 499 1188 522 q 1183 440 1186 469 q 1175 386 1180 412 q 1146 278 1166 326 q 1127 238 1137 257 q 1105 202 1117 219 q 1078 168 1093 184 q 1049 139 1064 153 q 1010 109 1032 123 q 965 84 988 96 q 907 59 938 70 q 840 39 876 48 q 783 27 813 32 q 720 17 752 21 q 659 12 690 14 q 594 8 627 9 q 566 2 581 5 q 536 -3 552 0 q 503 -10 520 -6 q 469 -14 486 -13 q 434 -16 451 -16 q 398 -12 416 -16 q 364 -1 381 -8 q 330 18 347 5 l 330 -103 l 330 -238 l 330 -363 l 330 -497 q 326 -547 329 -520 q 318 -599 324 -575 q 304 -644 313 -623 q 282 -674 295 -664 q 328 -680 305 -678 q 374 -684 351 -683 q 413 -686 394 -686 q 451 -684 432 -686 q 501 -678 477 -683 q 550 -665 526 -674 q 590 -646 571 -657 q 629 -621 610 -636 l 656 -636 q 615 -658 634 -648 q 576 -678 595 -668 q 524 -702 550 -691 q 466 -721 497 -713 q 412 -732 440 -728 q 349 -739 383 -736 q 296 -740 324 -740 q 236 -737 268 -740 q 214 -742 226 -741 q 187 -743 202 -743 q 156 -742 173 -743 q 119 -744 139 -741 q 72 -738 93 -739 q 32 -740 51 -737 q 8 -745 20 -743 q -16 -750 -4 -748 q -41 -754 -28 -752 q -69 -754 -54 -755 l -58 -733 q -17 -722 -35 -727 q 12 -712 0 -717 q 34 -699 24 -706 q 51 -680 44 -693 q 65 -636 59 -664 q 74 -561 70 -609 q 73 -419 74 -496 q 71 -259 73 -343 q 70 -160 71 -210 q 67 -59 69 -109 q 66 35 67 -12 q 62 128 65 82 q 57 298 61 215 q 51 453 54 381 q 46 563 48 512 q 41 652 43 614 q 37 714 39 690 q 32 744 35 737 q 14 811 24 785 q -5 851 5 836 q -28 872 -14 865 q -60 884 -42 880 q -103 889 -78 888 q -158 893 -127 891 q -42 918 -100 911 q 74 927 14 926 q 130 934 105 934 q 173 931 154 934 q 206 919 192 927 q 231 901 221 911 q 262 862 249 884 q 290 816 275 840 m 566 850 q 511 825 538 843 q 459 779 484 807 q 413 720 435 754 q 374 649 391 687 q 343 573 356 613 q 322 495 330 534 q 313 419 316 457 q 317 349 311 381 q 334 289 321 318 q 364 233 347 260 q 407 180 383 204 q 457 135 431 155 q 502 104 478 118 q 549 80 526 90 q 619 57 584 65 q 684 52 653 50 q 745 66 717 55 q 794 92 773 77 q 847 141 824 112 q 884 204 869 170 q 910 271 900 236 q 927 341 920 306 q 938 405 934 374 q 945 465 942 436 q 937 547 948 507 q 907 625 927 588 q 859 694 887 661 q 800 752 831 727 q 743 794 773 775 q 686 826 714 813 q 619 849 651 843 q 566 850 587 855 "},"":{"x_min":16.734375,"x_max":834.140625,"ha":875,"o":"m 48 55 l 48 236 l 46 236 q 42 236 44 236 q 37 237 39 237 q 31 237 32 237 q 18 248 21 241 q 16 255 17 252 q 17 263 16 259 q 25 276 18 271 q 40 282 31 282 q 43 282 42 282 q 44 282 44 282 l 50 283 q 74 284 62 283 q 99 286 86 284 q 124 286 112 286 q 149 284 136 286 q 172 282 161 284 q 195 275 184 279 q 234 245 217 267 q 242 236 238 241 q 249 226 245 230 q 259 203 254 215 q 269 146 268 176 q 267 117 269 131 q 261 88 265 103 q 258 78 260 84 q 253 69 256 73 q 248 59 250 63 q 242 50 245 54 q 236 42 240 46 q 227 35 231 37 q 210 21 219 27 q 173 10 193 13 q 153 8 164 9 q 131 8 142 8 q 109 8 120 8 q 88 8 99 8 q 67 9 77 9 q 48 9 56 9 q 36 12 43 9 q 27 16 31 13 q 20 27 23 20 q 17 37 17 32 q 24 50 17 47 q 39 54 32 54 q 44 55 42 54 q 46 55 44 55 q 48 55 47 55 m 94 55 q 111 55 103 55 q 127 55 119 55 q 144 54 135 54 q 161 55 153 54 q 177 59 169 56 q 192 65 184 61 q 214 88 206 71 q 227 155 230 127 q 206 202 223 183 q 184 217 196 210 q 158 227 172 223 q 127 233 143 231 q 94 236 111 236 l 94 55 m 546 31 q 537 28 542 29 q 528 25 533 27 q 512 18 519 21 q 494 12 504 16 q 474 8 484 9 q 434 4 454 4 q 393 8 412 4 q 355 20 373 12 q 350 23 352 21 q 345 25 348 24 q 341 29 343 28 q 337 32 339 31 q 334 35 336 33 q 330 39 332 37 q 325 47 328 43 q 318 66 321 56 q 313 86 314 75 q 309 127 309 108 q 311 156 309 142 q 316 184 313 170 q 325 212 320 199 q 337 236 330 225 q 377 273 352 259 q 434 287 400 287 q 439 287 436 287 q 442 286 440 287 q 446 286 444 286 q 461 286 453 286 q 469 284 465 284 q 477 283 473 283 q 484 281 480 282 q 492 279 488 280 q 500 278 496 279 q 507 278 504 278 q 511 280 508 278 q 522 286 516 287 q 531 280 527 284 q 537 269 535 275 q 539 262 538 265 q 539 256 539 259 q 541 248 541 252 q 543 241 542 245 q 544 233 543 237 q 545 225 545 229 q 544 217 545 221 q 542 210 543 212 q 533 195 539 202 q 527 192 531 193 q 519 191 523 191 q 512 192 515 191 q 508 195 509 193 q 502 207 505 202 q 497 218 499 212 q 492 226 495 222 q 485 233 489 230 q 478 238 482 236 q 469 241 473 240 q 439 244 458 244 q 422 242 431 244 q 406 240 413 241 q 391 233 398 237 q 378 223 383 229 q 368 212 373 219 q 359 199 363 206 q 352 165 352 184 q 352 156 352 161 q 354 146 352 151 q 354 136 354 142 q 354 126 354 131 q 356 104 355 113 q 359 86 358 94 q 368 62 363 71 q 381 50 374 52 q 396 46 387 46 q 404 46 400 46 q 415 48 409 47 q 426 50 420 48 q 438 54 432 52 q 451 56 444 55 q 466 59 458 58 q 482 60 474 59 q 500 61 491 61 l 500 93 q 499 93 500 93 q 497 93 499 93 q 495 93 496 93 q 493 93 495 93 q 484 93 489 93 q 474 93 480 93 q 450 93 461 92 q 439 95 444 93 q 429 100 434 97 q 421 116 421 105 q 421 118 421 118 q 421 120 421 119 q 425 128 423 124 q 431 134 427 131 q 446 139 438 139 q 458 142 451 141 q 473 145 465 143 q 488 145 480 145 q 504 146 496 146 q 520 145 512 146 q 537 143 528 145 q 551 140 545 142 q 562 135 557 138 q 566 131 565 134 q 568 126 568 128 q 565 107 568 115 q 562 99 564 103 q 558 90 560 94 q 554 84 556 88 q 552 75 553 80 q 549 66 550 71 q 547 55 547 61 q 547 51 547 54 q 547 46 547 48 q 546 38 546 42 q 546 31 546 35 m 687 236 l 687 55 l 788 55 l 788 99 q 789 112 788 107 q 794 120 792 118 q 801 127 797 124 q 809 128 805 128 q 817 128 813 128 q 822 126 820 127 q 826 123 824 124 q 834 99 834 116 l 834 9 l 615 9 q 610 10 613 9 q 604 10 607 10 q 599 12 602 12 q 595 14 596 13 q 587 23 590 17 q 584 32 584 25 q 587 44 584 40 q 592 51 588 50 q 598 53 595 52 q 603 55 600 54 q 609 55 606 55 q 615 55 613 55 l 641 55 l 641 236 q 634 236 638 236 q 625 236 629 236 q 615 236 619 236 q 606 237 610 237 q 598 240 602 238 q 591 244 594 241 q 584 260 584 249 q 584 261 584 260 q 584 263 584 261 q 585 265 584 264 q 585 267 585 267 q 584 268 585 268 q 582 268 583 268 q 581 268 581 268 q 579 271 580 269 q 584 276 581 273 q 591 279 587 278 q 600 283 595 282 q 610 286 604 284 q 620 288 614 287 q 633 290 626 288 q 645 290 638 290 q 657 291 652 291 q 683 291 670 292 q 695 290 689 291 q 706 290 701 290 q 725 284 716 287 q 732 281 728 283 q 737 276 736 279 q 741 273 740 275 q 744 269 743 271 q 745 261 745 265 q 744 252 745 257 q 740 245 743 248 q 732 240 736 242 q 724 237 728 238 q 715 235 720 236 q 705 234 710 234 q 696 235 701 234 q 687 236 691 236 "},"R":{"x_min":-46.109375,"x_max":1576.0625,"ha":1221,"o":"m -46 891 q 17 893 -14 892 q 85 896 50 895 q 139 900 112 899 q 192 903 166 901 q 250 905 222 904 q 303 906 279 906 q 351 906 329 907 q 389 904 373 906 q 448 910 417 907 q 511 915 480 914 q 585 919 547 918 q 657 919 622 920 q 727 915 693 919 q 793 904 760 911 q 859 887 827 897 q 920 862 891 877 q 950 844 935 854 q 978 821 965 834 q 1002 793 991 808 q 1021 760 1013 778 q 1032 724 1028 743 q 1034 683 1036 705 q 1029 639 1034 663 q 1011 591 1024 615 q 994 560 1005 575 q 971 534 984 546 q 944 512 958 522 q 912 492 929 501 q 875 474 895 482 q 835 457 855 465 q 804 445 820 451 q 774 434 789 439 q 796 415 785 424 q 816 397 807 406 q 843 373 830 386 q 870 348 857 360 q 916 304 893 326 q 961 259 939 282 q 994 223 977 241 q 1029 187 1011 206 q 1057 157 1043 172 q 1085 127 1071 142 q 1143 66 1113 96 q 1199 31 1169 46 q 1257 9 1228 17 q 1310 2 1285 2 q 1353 8 1336 1 q 1401 31 1378 18 q 1448 59 1425 44 q 1494 90 1471 74 q 1540 127 1517 107 q 1549 123 1544 124 q 1558 120 1554 122 q 1567 117 1562 119 q 1576 113 1572 115 q 1548 69 1565 89 q 1513 35 1532 50 q 1459 4 1489 16 q 1399 -13 1429 -6 q 1354 -22 1378 -18 q 1310 -28 1330 -25 q 1260 -31 1283 -29 q 1222 -35 1236 -32 q 1186 -47 1205 -42 q 1146 -55 1167 -52 q 1102 -56 1124 -56 q 1056 -54 1079 -56 q 1007 -44 1032 -51 q 961 -28 983 -37 q 930 -10 945 -20 q 904 8 915 -1 q 878 33 892 20 q 851 61 865 46 q 823 90 838 74 q 796 120 809 105 q 763 155 779 138 q 731 191 747 173 q 706 219 718 204 q 682 245 694 233 q 655 273 668 260 q 627 301 641 287 q 603 324 615 313 q 579 344 591 336 q 537 372 556 363 q 503 379 518 382 q 486 382 495 381 q 467 385 477 383 q 448 387 458 386 q 429 390 439 389 q 400 388 412 390 q 389 377 389 386 q 389 337 389 356 q 389 298 389 317 q 389 247 389 272 q 389 198 389 222 q 389 152 389 174 q 389 108 389 130 q 389 63 389 85 q 389 17 389 40 l 146 -35 q 146 44 146 4 q 145 124 146 84 q 144 205 145 165 q 143 284 143 245 q 141 370 142 328 q 141 455 141 413 q 141 531 141 493 q 141 606 141 569 q 131 642 136 623 q 120 680 126 661 q 102 730 112 705 q 80 775 92 755 q 55 812 69 796 q 27 840 42 828 q -6 861 10 854 q -43 869 -23 868 q -44 880 -43 874 q -46 891 -46 885 m 359 855 q 364 800 362 828 q 368 744 366 771 q 372 701 371 722 q 377 659 374 680 q 380 612 378 636 q 383 564 382 588 q 386 518 385 541 q 389 472 387 495 q 389 458 389 466 q 393 443 390 450 q 400 431 396 436 q 410 427 405 427 q 455 428 432 427 q 501 432 478 429 q 550 438 526 435 q 598 447 575 442 q 642 460 621 453 q 684 478 664 467 q 721 503 703 489 q 751 535 739 518 q 768 566 760 549 q 781 600 775 583 q 787 637 785 618 q 786 675 789 656 q 779 711 785 693 q 762 745 773 729 q 737 776 752 762 q 703 801 722 790 q 560 855 636 838 q 482 868 522 863 q 401 872 443 872 q 388 871 396 872 q 374 869 381 870 q 364 864 368 868 q 359 855 359 861 "},"o":{"x_min":44.21875,"x_max":1261.84375,"ha":1325,"o":"m 537 906 q 572 916 554 911 q 607 925 590 922 q 653 933 630 930 q 699 937 676 937 q 740 938 720 938 q 781 935 760 938 q 821 931 801 934 q 861 923 842 927 q 938 901 900 915 q 1013 870 976 888 q 1081 830 1048 853 q 1140 782 1113 808 q 1184 734 1165 760 q 1217 678 1203 708 q 1239 624 1230 652 q 1253 566 1247 596 q 1260 513 1257 541 q 1261 457 1262 485 q 1256 387 1261 421 q 1242 320 1251 352 q 1210 251 1232 284 q 1154 188 1188 218 q 1089 139 1125 162 q 1013 96 1053 116 q 975 77 995 86 q 935 61 956 69 q 882 40 910 50 q 828 24 855 31 q 783 12 807 17 q 737 1 760 6 q 688 -7 713 -2 q 638 -14 663 -12 q 583 -30 610 -25 q 528 -35 557 -35 q 534 -25 531 -29 q 539 -14 537 -20 q 478 -14 507 -14 q 423 -10 448 -13 q 376 -4 398 -8 q 335 6 354 0 q 291 23 311 13 q 252 46 271 33 q 221 66 237 55 q 191 89 206 77 q 143 134 165 109 q 105 188 122 160 q 80 241 90 214 q 62 297 69 268 q 50 355 55 325 q 44 415 46 385 q 45 482 43 448 q 52 545 47 515 q 61 582 56 564 q 73 618 66 600 q 86 652 78 636 q 104 683 94 668 q 126 717 113 701 q 151 748 138 733 q 181 777 165 763 q 212 802 196 792 q 247 826 229 815 q 284 847 265 838 q 324 865 303 857 q 367 878 345 873 q 407 889 386 885 q 448 897 428 893 q 537 906 492 904 m 752 834 q 685 856 718 849 q 621 866 652 863 q 565 868 591 869 q 522 863 539 866 q 487 851 507 861 q 448 826 467 840 q 411 792 429 811 q 378 755 393 774 q 336 684 354 721 q 307 611 318 648 q 291 516 294 564 q 295 424 288 469 q 313 350 301 386 q 341 282 325 314 q 386 211 360 244 q 442 151 412 179 q 525 94 481 116 q 611 62 569 73 q 693 53 655 52 q 762 65 732 54 q 777 75 770 73 q 789 78 783 78 q 800 77 794 78 q 811 78 805 75 q 855 101 834 88 q 896 130 877 113 q 930 164 914 146 q 958 203 946 183 q 992 277 979 238 q 1011 358 1006 316 q 1015 454 1018 405 q 998 550 1011 503 q 958 647 984 600 q 895 733 933 694 q 830 789 866 763 q 752 834 794 815 "}}}
